<?xml version="1.0" encoding="UTF-8" standalone="no"?>
<!-- Created with Inkscape (http://www.inkscape.org/) -->

<svg
   xmlns:dc="http://purl.org/dc/elements/1.1/"
   xmlns:cc="http://creativecommons.org/ns#"
   xmlns:rdf="http://www.w3.org/1999/02/22-rdf-syntax-ns#"
   xmlns:svg="http://www.w3.org/2000/svg"
   xmlns="http://www.w3.org/2000/svg"
   version="1.1"
   width="645"
   height="400"
   id="svg2985"
   xml:space="preserve"><title
     id="title3947">Ground Water And Surface Water A Single Resource</title><metadata
     id="metadata2991"><rdf:RDF><cc:Work
         rdf:about=""><dc:format>image/svg+xml</dc:format><dc:type
           rdf:resource="http://purl.org/dc/dcmitype/StillImage" /><dc:title>Ground Water And Surface Water A Single Resource</dc:title><dc:description>Ground-water flow paths vary greatly in length, depth, and traveltime from points of recharge to points of discharge in the groundwater system.</dc:description><dc:date>1998</dc:date><dc:creator><cc:Agent><dc:title>U.S. Geological Survey </dc:title></cc:Agent></dc:creator><dc:rights><cc:Agent><dc:title>public domain</dc:title></cc:Agent></dc:rights><dc:source>http://pubs.usgs.gov/circ/circ1139/</dc:source><dc:identifier>Figure 3</dc:identifier><dc:subject><rdf:Bag><rdf:li>groundwater</rdf:li></rdf:Bag></dc:subject><dc:contributor><cc:Agent><dc:title>T.C. Winter, J.W. Harvey, O.L. Franke, and W.M. Alley</dc:title></cc:Agent></dc:contributor><cc:license
           rdf:resource="" /></cc:Work></rdf:RDF></metadata><defs
     id="defs2989"><clipPath
       id="clipPath3217"><path
         d="m 46.601,507.48 339.96,0 0,-211.92 -339.96,0 0,211.92 z"
         id="path3219" /></clipPath><clipPath
       id="clipPath3243"><path
         d="m 46.601,507.48 339.96,0 0,-211.92 -339.96,0 0,211.92 z"
         id="path3245" /></clipPath><clipPath
       id="clipPath3285"><path
         d="m 46.601,507.48 339.96,0 0,-211.92 -339.96,0 0,211.92 z"
         id="path3287" /></clipPath><clipPath
       id="clipPath3321"><path
         d="m 46.601,507.48 339.96,0 0,-211.92 -339.96,0 0,211.92 z"
         id="path3323" /></clipPath><clipPath
       id="clipPath3333"><path
         d="m 46.601,507.48 339.96,0 0,-211.92 -339.96,0 0,211.92 z"
         id="path3335" /></clipPath><clipPath
       id="clipPath3691"><path
         d="m 46.601,507.48 339.96,0 0,-211.92 -339.96,0 0,211.92 z"
         id="path3693" /></clipPath></defs><g
     transform="matrix(1.25,0,0,-1.25,51.988438,700.08748)"
     id="g2993"><path
       d="m 417.79575,401.60147 c 1.11,0.2205 3.516,0.588 8.703,1.176 11.8965,1.347 15.228,1.5855 24,3 15.4005,2.4825 19.5015,2.25 19.5015,2.25 l 0,-163.5075 -504.021,0 0,171.0075 c 0,0 10.8765,3.8385 17.2515,3.9 6.3045,0.0615 20.712,5.6145 33.3765,7.725 13.5,2.25 32.1255,4.626 50.6265,7.1265 17.9775,2.4285 27.7515,1.8 51.0015,3.3 23.2515,1.5 54.003,3.075 76.878,3.075 26.289,0 33.831,-2.586 44.877,-5.376 15.4635,-3.9045 16.3755,-5.7495 37.2525,-9.2505 29.262,-4.905 19.5,-6.75 53.2515,-13.5 33.7515,-6.75 37.221,-5.9295 54.5025,-8.751 9.081,-1.482 15.2775,-1.728 17.8755,-1.7565 0.9075,-0.009 1.938,-0.705 1.938,-0.705 l 1.188,-2.4135 10.125,0 0.6555,1.8435 c 0,0 -0.093,0.636 1.017,0.8565"
       id="path3211"
       style="fill:#f1e8d3;fill-opacity:1;fill-rule:nonzero;stroke:none" /><g
       transform="matrix(1.5,0,0,1.5,-108.35775,-200.24953)"
       id="g3213"><g
         clip-path="url(#clipPath3217)"
         id="g3215"><path
           d="m 350.769,401.234 c 0.74,0.147 2.344,0.392 5.802,0.784 7.931,0.898 10.152,1.057 16,2 10.267,1.655 13.001,1.5 13.001,1.5 l 0,-109.005 -336.014,0 0,114.005 c 0,0 7.251,2.559 11.501,2.6 4.203,0.041 13.808,3.743 22.251,5.15 9,1.5 21.417,3.084 33.751,4.751 11.985,1.619 18.501,1.2 34.001,2.2 15.501,1 36.002,2.05 51.252,2.05 17.526,0 22.554,-1.724 29.918,-3.584 10.309,-2.603 10.917,-3.833 24.835,-6.167 19.508,-3.27 13,-4.5 35.501,-9 22.501,-4.5 24.814,-3.953 36.335,-5.834 6.054,-0.988 10.185,-1.152 11.917,-1.171 0.605,-0.006 1.292,-0.47 1.292,-0.47 l 0.792,-1.609 6.75,0 0.437,1.229 c 0,0 -0.062,0.424 0.678,0.571"
           id="path3221"
           style="fill:none;stroke:#000000;stroke-width:0.5;stroke-linecap:butt;stroke-linejoin:miter;stroke-miterlimit:4;stroke-opacity:1;stroke-dasharray:none" /></g></g><path
       d="m -33.77025,410.52797 c 6.4995,0.999 6,1.749 13.5,2.7495 9.045,1.206 10.0005,1.9995 17.2515,2.5005 6.2595,0.432 5.271,1.1175 9.807,0.822 2.298,-0.1515 5.8425,-1.326 7.1925,-2.823 3.0885,-3.4215 3.0015,-4.5 3.0015,-4.5 l 4.749,0 c 0,0 0.693,2.1735 2.001,4.251 1.611,2.5575 3.2505,3.75 6,4.5 6.2715,1.71 27.7515,3.999 37.752,4.5 9.999,0.4995 39.0015,1.5 51.0015,2.5005 12,0.999 35.001,1.5 50.0025,1.5 15,0 38.001,-1.5 53.001,-3.501 15.0015,-1.9995 37.002,-4.9995 58.0035,-8.5005 21,-3.4995 31.5015,-6 46.5015,-8.5005 15.7305,-2.6205 37.248,-5.0505 51.0015,-6 14.5005,-0.999 29.0025,-1.299 29.0025,-1.299 l 9.4995,-0.201 c 0,0 8.5005,0.801 20.5005,0.801 8.2845,0 22.53,1.902 34.002,1.6995 l 0,-156.507 -504.021,0 0.2505,166.008"
       id="path3223"
       style="fill:#d8e2f0;fill-opacity:1;fill-rule:nonzero;stroke:none" /><path
       d="m 406.24725,398.86997 9.9315,0.0315 0.0375,2.781 c 0,0 -0.219,5.595 -0.219,7.47 0,1.875 -0.75,5.0625 -2.625,8.4375 -1.875,3.375 -3,5.25 -3,8.25 0,3 2.25,3.5625 2.625,7.3125 0.375,3.7515 -3,7.1265 -6.75,10.5015 -3.75,3.375 -7.5,5.625 -12,7.875 -4.5,2.25 -10.3125,3.9375 -14.064,6 -3.9975,2.199 -8.4375,5.625 -11.8125,6.75 -3.375,1.125 -7.1415,2.505 -7.875,5.439 -0.1155,0.462 -0.66,2.3535 -0.927,3.7785 l -7.944,-0.174 0.4845,-1.719 1.449,-3.9495 c 0,0 0.1875,-4.125 9.9375,-7.875 9.75,-3.75 12.75,-7.5 21.0015,-10.5 8.25,-3 14.0985,-7.0335 16.5,-10.875 1.875,-3 3.75,-5.6265 2.25,-8.6265 -1.5,-3 -3,-6.375 -0.75,-9.75 2.25,-3.375 3,-2.8125 3.75,-6.5625 0.75,-3.75 0.375,-9.438 0.375,-9.438 l -0.375,-5.157 z"
       id="path3225"
       style="fill:#d7eefd;fill-opacity:1;fill-rule:nonzero;stroke:#000000;stroke-width:0.45000002;stroke-linecap:butt;stroke-linejoin:miter;stroke-miterlimit:4;stroke-opacity:1;stroke-dasharray:none" /><path
       d="m 406.22175,399.00197 c 0,0 1.245,10.431 0.0255,14.463 -1.107,3.66 -1.5,3.1875 -3.75,6.5625 -2.25,3.375 -0.75,6.75 0.75,9.75 1.5,3 -0.375,5.6265 -2.25,8.6265 -2.4015,3.8415 -8.25,7.875 -16.5,10.875 -8.2515,3 -11.2515,6.75 -21.0015,10.5 -9.75,3.75 -9.9375,7.875 -9.9375,7.875 l -1.449,3.9495 -1.176,3.552 c 0,0 -21.0015,4.5 -38.2515,8.25 -15.8925,3.4545 -7.32,6.507 -31.8765,9.75 -19.8765,2.625 -23.589,3.9375 -42.5265,4.875 -19.6065,0.9705 -23.289,1.5 -46.5405,0.75 -23.25,-0.75 -24.75,-0.75 -40.5015,-2.25 -15.75,-1.5 -33.0015,-3.75 -48.0015,-7.5 -15.0015,-3.75 -26.6265,-4.5 -43.1265,-7.5 -16.5015,-3 -17.6265,0 -30.3765,-2.25 -12.75,-2.25 -17.2515,-2.25 -22.5015,-6.75 -5.25,-4.5015 -6.75,-10.5015 -13.5,-17.2515 -6.75,-6.75 -9.75,-12 -17.2515,-20.25 -7.5,-8.2515 -10.5,-19.5015 -10.5,-19.5015 0,0 10.8765,3.8385 17.2515,3.9 6.3045,0.0615 20.712,5.6145 33.3765,7.725 13.5,2.25 32.1255,4.626 50.6265,7.1265 17.9775,2.4285 27.7515,1.8 51.0015,3.3 23.2515,1.5 54.003,3.075 76.878,3.075 26.289,0 33.831,-2.586 44.877,-5.376 15.4635,-3.9045 16.3755,-5.7495 37.2525,-9.2505 29.262,-4.905 19.5,-6.75 53.2515,-13.5 33.7515,-6.75 37.221,-5.9295 54.5025,-8.751 9.1875,-1.5 15.423,-1.734 17.9655,-1.758 0.8475,-0.007 1.848,-0.8355 1.848,-0.8355 l 1.3365,-2.2815"
       id="path3227"
       style="fill:#e1f0d4;fill-opacity:1;fill-rule:nonzero;stroke:#000000;stroke-width:0.60000002;stroke-linecap:butt;stroke-linejoin:miter;stroke-miterlimit:4;stroke-opacity:1;stroke-dasharray:none" /><path
       d="m 416.77875,400.93247 c 0,0 -0.0795,0.444 0.9015,0.6465 1.056,0.2175 3.444,0.5895 8.8185,1.1985 11.8965,1.347 15.228,1.5855 24,3 15.4005,2.4825 19.5015,2.25 19.5015,2.25 0,0 -13.875,28.1265 -15.75,30.0015 -1.8765,1.875 -24.3765,33.7515 -26.2515,35.6265 -0.657,0.657 -7.1565,7.9065 -9.0945,9.468 -0.5775,0.4665 -1.032,0.657 -1.032,0.657 0,0 -4.875,-0.375 -11.625,-1.125 -6.75,-0.75 -12,-3.375 -21.75,-3.75 -9.7515,-0.375 -24.939,-4.7505 -24.939,-4.7505 0,0 0.75,-3.687 0.9375,-4.437 0.7335,-2.934 4.5,-4.314 7.875,-5.439 3.375,-1.125 7.815,-4.551 11.8125,-6.75 3.7515,-2.0625 9.564,-3.75 14.064,-6 4.5,-2.25 8.25,-4.5 12,-7.875 3.75,-3.375 7.125,-6.75 6.75,-10.5015 -0.375,-3.75 -2.625,-4.3125 -2.625,-7.3125 0,-3 1.125,-4.875 3,-8.25 1.875,-3.375 2.157,-5.25 2.7195,-8.4375 l 0.093,-10.125 0.594,1.905 z"
       id="path3229"
       style="fill:#e1f0d4;fill-opacity:1;fill-rule:nonzero;stroke:#000000;stroke-width:0.60000002;stroke-linecap:butt;stroke-linejoin:miter;stroke-miterlimit:4;stroke-opacity:1;stroke-dasharray:none" /><path
       d="m 406.09725,398.93297 c 0,0 0.432,-1.782 0.9,-2.4375 0.4695,-0.657 0.657,-1.5 1.9695,-1.9695 1.3125,-0.468 2.1555,-0.75 3.093,-0.468 0.9375,0.2805 1.6875,0.2805 2.25,1.125 0.5625,0.843 1.2195,1.218 1.407,2.1555 l 0.375,1.5945 -9.9945,0"
       id="path3231"
       style="fill:#b1dbfa;fill-opacity:1;fill-rule:nonzero;stroke:none" /><path
       d="m 406.09725,398.93297 c 0,0 0.432,-1.782 0.9,-2.4375 0.4695,-0.657 0.657,-1.5 1.9695,-1.9695 1.3125,-0.468 2.1555,-0.75 3.093,-0.468 0.9375,0.2805 1.6875,0.2805 2.25,1.125 0.5625,0.843 1.2195,1.218 1.407,2.1555 l 0.375,1.5945 -9.9945,0 z"
       id="path3233"
       style="fill:none;stroke:#000000;stroke-width:0.60000002;stroke-linecap:butt;stroke-linejoin:miter;stroke-miterlimit:4;stroke-opacity:1;stroke-dasharray:none" /><path
       d="m -34.02075,380.02547 c 0,0 4.0005,-0.4995 8.5005,0 4.5,0.501 6.501,-0.4995 13.0005,0.501 6.501,0.999 17.001,0.4995 22.5015,0 5.499,-0.501 7.9995,-1.0005 17.001,-1.0005 9,0 27.501,-1.5 44.5005,-1.5 17.001,0 57.003,-3.4995 75.504,-1.9995 18.501,1.5 25.5,1.5 40.5015,1.5 15,0 17.001,-0.501 32.5005,-1.0005 15.501,-0.4995 32.502,-1.9995 50.0025,-0.4995 17.5005,1.5 36.501,1.5 57.003,0.999 20.5005,-0.4995 36.501,0 57.5025,-1.5 21,-1.5 30,0 45.501,0 15.501,0 40.002,0.501 40.002,0.501 l 0,-19.002 -9,0 c -6.501,1.0005 -9.0015,-0.4995 -15.0015,0 -6,0.501 -0.999,1.5 -12,1.5 -11.001,0 -27.501,-2.499 -40.5015,-1.9995 -13.0005,0.4995 -4.0005,1.9995 -32.502,1.0005 -28.5015,-1.0005 -31.5015,-2.5005 -49.5015,-2.001 -18.0015,0.501 -25.0005,1.0005 -40.002,1.0005 -15,0 -19.0005,-1.5 -35.5005,-0.4995 -16.5015,0.999 -14.001,2.499 -38.502,2.499 -24.501,0 -42.0015,0 -58.002,0 -16.002,0 -35.502,1.0005 -50.502,1.0005 -15.0015,0 -18.501,1.0005 -36.0015,0.4995 -17.502,-0.4995 -36.5025,-0.999 -51.5025,-0.999 -15.0015,0 -16.5015,0.999 -24.501,0.4995 -8.001,-0.4995 -10.5015,-0.4995 -10.5015,-0.4995 l -0.4995,21"
       id="path3235"
       style="fill:#e8dfcb;fill-opacity:1;fill-rule:nonzero;stroke:none" /><path
       d="m -34.02075,380.02547 c 0,0 4.0005,-0.4995 8.5005,0 4.5,0.501 6.501,-0.4995 13.0005,0.501 6.501,0.999 17.001,0.4995 22.5015,0 5.499,-0.501 7.9995,-1.0005 17.001,-1.0005 9,0 27.501,-1.5 44.5005,-1.5 17.001,0 57.003,-3.4995 75.504,-1.9995 18.501,1.5 25.5,1.5 40.5015,1.5 15,0 17.001,-0.501 32.5005,-1.0005 15.501,-0.4995 32.502,-1.9995 50.0025,-0.4995 17.5005,1.5 36.501,1.5 57.003,0.999 20.5005,-0.4995 36.501,0 57.5025,-1.5 21,-1.5 30,0 45.501,0 15.501,0 40.002,0.501 40.002,0.501 l 0,-19.002 -9,0 c -6.501,1.0005 -9.0015,-0.4995 -15.0015,0 -6,0.501 -0.999,1.5 -12,1.5 -11.001,0 -27.501,-2.499 -40.5015,-1.9995 -13.0005,0.4995 -4.0005,1.9995 -32.502,1.0005 -28.5015,-1.0005 -31.5015,-2.5005 -49.5015,-2.001 -18.0015,0.501 -25.0005,1.0005 -40.002,1.0005 -15,0 -19.0005,-1.5 -35.5005,-0.4995 -16.5015,0.999 -14.001,2.499 -38.502,2.499 -24.501,0 -42.0015,0 -58.002,0 -16.002,0 -35.502,1.0005 -50.502,1.0005 -15.0015,0 -18.501,1.0005 -36.0015,0.4995 -17.502,-0.4995 -36.5025,-0.999 -51.5025,-0.999 -15.0015,0 -16.5015,0.999 -24.501,0.4995 -8.001,-0.4995 -10.5015,-0.4995 -10.5015,-0.4995 l -0.4995,21 z"
       id="path3237"
       style="fill:none;stroke:#000000;stroke-width:0.60000002;stroke-linecap:butt;stroke-linejoin:miter;stroke-miterlimit:4;stroke-opacity:1;stroke-dasharray:none" /><g
       transform="matrix(1.5,0,0,1.5,-108.35775,-200.24953)"
       id="g3239"><g
         clip-path="url(#clipPath3243)"
         id="g3241"><path
           d="m 49.891,341.182 c 0,0 18.335,-1 26.668,-1.334 8.334,-0.333 12.334,0.667 29.335,-0.333 17,-1 16,-2.333 28.668,-2 12.667,0.333 31.334,-1.667 43.668,-2.333 12.334,-0.667 15.667,-1.667 34.335,0 18.667,1.666 29.334,2 41.668,2.333 12.334,0.333 25.001,-0.667 39.002,-1.333 14,-0.667 16.667,-0.667 28.668,-1 12,-0.334 10,0.333 27.334,0.666 17.334,0.334 17.667,0.667 25.001,0.667 7.334,0 11.334,0 11.334,0 l 0,-19.668 c 0,0 2.667,0 -7.667,-0.333 -10.334,-0.333 -10.667,1.333 -27.668,1.333 -17.001,0 -33.335,-3 -45.335,-2.333 -12.001,0.667 -17.334,1 -31.335,2 -14,1 -9,1.334 -28.668,1.334 -19.667,0 -39.668,-1.334 -50.668,-0.667 -11.001,0.667 -17.668,2.667 -34.002,3 -16.334,0.333 -18.667,1.667 -35.668,1.667 -17,0 -29.668,-1 -43.668,-0.334 -14.001,0.667 -19.668,0.334 -24.335,0.334 -4.666,0 -6.667,0.333 -6.667,0.333 l 0,18.001"
           id="path3247"
           style="fill:#e8dfcb;fill-opacity:1;fill-rule:nonzero;stroke:none" /><path
           d="m 49.891,341.182 c 0,0 18.335,-1 26.668,-1.334 8.334,-0.333 12.334,0.667 29.335,-0.333 17,-1 16,-2.333 28.668,-2 12.667,0.333 31.334,-1.667 43.668,-2.333 12.334,-0.667 15.667,-1.667 34.335,0 18.667,1.666 29.334,2 41.668,2.333 12.334,0.333 25.001,-0.667 39.002,-1.333 14,-0.667 16.667,-0.667 28.668,-1 12,-0.334 10,0.333 27.334,0.666 17.334,0.334 17.667,0.667 25.001,0.667 7.334,0 11.334,0 11.334,0 l 0,-19.668 c 0,0 2.667,0 -7.667,-0.333 -10.334,-0.333 -10.667,1.333 -27.668,1.333 -17.001,0 -33.335,-3 -45.335,-2.333 -12.001,0.667 -17.334,1 -31.335,2 -14,1 -9,1.334 -28.668,1.334 -19.667,0 -39.668,-1.334 -50.668,-0.667 -11.001,0.667 -17.668,2.667 -34.002,3 -16.334,0.333 -18.667,1.667 -35.668,1.667 -17,0 -29.668,-1 -43.668,-0.334 -14.001,0.667 -19.668,0.334 -24.335,0.334 -4.666,0 -6.667,0.333 -6.667,0.333 l 0,18.001 z"
           id="path3249"
           style="fill:none;stroke:#000000;stroke-width:0.40000001;stroke-linecap:butt;stroke-linejoin:miter;stroke-miterlimit:4;stroke-opacity:1;stroke-dasharray:none" /></g></g><path
       d="m -16.68975,322.95797 -12.1245,4.2525 12.738,-0.7335 -0.6135,-3.519"
       id="path3251"
       style="fill:#00a1ee;fill-opacity:1;fill-rule:nonzero;stroke:none" /><path
       d="m 113.18475,424.02797 c -5.9955,-25.578 -32.949,-45.522 -33.297,-46.3185 -0.5505,-1.2555 -0.087,-6.93 -1.983,-17.958 -7.8315,-45.573 -89.019,-36.78 -95.6355,-34.596"
       id="path3253"
       style="fill:none;stroke:#00a1ee;stroke-width:1.20000005;stroke-linecap:butt;stroke-linejoin:miter;stroke-miterlimit:4;stroke-opacity:1;stroke-dasharray:none" /><path
       d="m -14.59125,252.52247 -12.6585,2.2035 12.6855,1.368 -0.027,-3.5715"
       id="path3255"
       style="fill:#00a1ee;fill-opacity:1;fill-rule:nonzero;stroke:none" /><path
       d="m 150.18675,425.52797 c -0.3195,-4.821 -1.674,-9.8295 -3.612,-14.7345 m -5.4345,-11.244 c -7.4475,-13.2015 -16.7865,-23.598 -17.001,-24.09 -0.549,-1.2555 0.663,-5.43 -1.2315,-16.458 -4.4145,-25.6785 -21.3615,-49.9095 -37.887,-53.022 -1.251,-0.237 -1.572,-18.567 -3.2055,-21.5745 -20.7195,-38.1735 -73.5585,-29.4615 -97.7955,-29.7525"
       id="path3257"
       style="fill:none;stroke:#00a1ee;stroke-width:1.20000005;stroke-linecap:butt;stroke-linejoin:miter;stroke-miterlimit:4;stroke-opacity:1;stroke-dasharray:none" /><path
       d="m 405.88425,379.62047 2.469,12.609 -5.814,-11.3565 3.345,-1.2525"
       id="path3259"
       style="fill:#00a1ee;fill-opacity:1;fill-rule:nonzero;stroke:none" /><path
       d="m 181.16475,425.62697 c 0.3135,-4.746 1.152,-9.645 2.2815,-14.4315 m 3.4515,-12.033 c 4.2285,-12.675 9.2265,-22.47 9.438,-22.953 0.549,-1.2555 -0.663,-6.555 1.2315,-17.583 4.4145,-25.6785 13.485,-42.4095 31.5105,-54.522 1.0575,-0.711 0.948,-23.8185 1.8315,-26.826 4.797,-16.35 16.3725,-19.9935 39.795,-25.302 22.173,-5.025 60.03,-5.1975 77.97,-1.341 23.613,5.076 31.608,13.1505 33.543,24.192 0.6015,3.4305 0.81,26.7945 1.527,27.75 13.068,17.3835 17.2095,33.132 18.36,53.739 0.0525,0.933 0.1875,17.9535 0.405,18.9225 0.978,4.3365 1.932,6.066 1.932,6.066"
       id="path3261"
       style="fill:none;stroke:#00a1ee;stroke-width:1.20000005;stroke-linecap:butt;stroke-linejoin:miter;stroke-miterlimit:4;stroke-opacity:1;stroke-dasharray:none" /><path
       d="m 35.42775,395.93897 -11.6295,-2.2995 10.323,5.625 1.3065,-3.3255"
       id="path3263"
       style="fill:#00a1ee;fill-opacity:1;fill-rule:nonzero;stroke:none" /><path
       d="m 46.23525,419.95547 c -0.8475,-10.3125 -3.8535,-20.049 -12.1425,-22.7835"
       id="path3265"
       style="fill:none;stroke:#00a1ee;stroke-width:1.20000005;stroke-linecap:butt;stroke-linejoin:miter;stroke-miterlimit:4;stroke-opacity:1;stroke-dasharray:none" /><path
       d="m 36.94725,382.01147 -12.771,1.41 12.576,2.157 0.195,-3.567"
       id="path3267"
       style="fill:#00a1ee;fill-opacity:1;fill-rule:nonzero;stroke:none" /><path
       d="m 76.54875,423.29297 c -4.875,-18.5595 -22.8255,-41.8275 -41.4555,-39.4965"
       id="path3269"
       style="fill:none;stroke:#00a1ee;stroke-width:1.20000005;stroke-linecap:butt;stroke-linejoin:miter;stroke-miterlimit:4;stroke-opacity:1;stroke-dasharray:none" /><path
       d="m 383.39625,383.43197 11.415,5.898 -12.5115,-2.499 1.0965,-3.399"
       id="path3271"
       style="fill:#00a1ee;fill-opacity:1;fill-rule:nonzero;stroke:none" /><path
       d="m 278.92725,413.54297 c 11.808,-44.946 94.5645,-32.31 106.458,-27.447"
       id="path3273"
       style="fill:none;stroke:#00a1ee;stroke-width:1.20000005;stroke-linecap:butt;stroke-linejoin:miter;stroke-miterlimit:4;stroke-opacity:1;stroke-dasharray:none" /><path
       d="m 390.21225,391.73597 12.075,4.3875 -12.729,-0.8745 0.654,-3.513"
       id="path3275"
       style="fill:#00a1ee;fill-opacity:1;fill-rule:nonzero;stroke:none" /><path
       d="m 331.42875,404.54147 c 9.183,-24.693 45.438,-13.1085 60.3315,-10.995"
       id="path3277"
       style="fill:none;stroke:#00a1ee;stroke-width:1.20000005;stroke-linecap:butt;stroke-linejoin:miter;stroke-miterlimit:4;stroke-opacity:1;stroke-dasharray:none" /><path
       d="m 428.16825,387.43847 -9.7785,8.3355 11.6175,-5.2725 -1.839,-3.063"
       id="path3279"
       style="fill:#00a1ee;fill-opacity:1;fill-rule:nonzero;stroke:none" /><g
       transform="matrix(1.5,0,0,1.5,-108.35775,-200.24953)"
       id="g3281"><g
         clip-path="url(#clipPath3285)"
         id="g3283"><path
           d="m 385.451,388.085 c -17.809,-1.434 -23.646,2.796 -28.62,5.608"
           id="path3289"
           style="fill:none;stroke:#00a1ee;stroke-width:0.80000001;stroke-linecap:butt;stroke-linejoin:miter;stroke-miterlimit:4;stroke-opacity:1;stroke-dasharray:none" /></g></g><path
       d="m 1.77975,382.10747 12.7635,1.4775 -12.5865,2.091 -0.177,-3.5685"
       id="path3291"
       style="fill:#00a1ee;fill-opacity:1;fill-rule:nonzero;stroke:none" /><path
       d="m -33.91125,404.91797 c -0.1515,-7.314 23.1795,-22.074 38.2185,-21.06"
       id="path3293"
       style="fill:none;stroke:#00a1ee;stroke-width:1.20000005;stroke-linecap:butt;stroke-linejoin:miter;stroke-miterlimit:4;stroke-opacity:1;stroke-dasharray:none" /><path
       d="m 3.51225,395.84297 11.1825,-1.6815 -10.041,5.0655 -1.1415,-3.384"
       id="path3295"
       style="fill:#00a1ee;fill-opacity:1;fill-rule:nonzero;stroke:none" /><path
       d="m -5.70975,414.95447 c -0.1515,-7.3125 1.1655,-14.922 9.954,-17.658"
       id="path3297"
       style="fill:none;stroke:#00a1ee;stroke-width:1.20000005;stroke-linecap:butt;stroke-linejoin:miter;stroke-miterlimit:4;stroke-opacity:1;stroke-dasharray:none" /><path
       d="m 24.55425,431.48447 0,-3.1875 c 0,0 -5.211,-0.9375 -6.564,-1.125 -1.8285,-0.255 -3.9375,-0.5625 -3.9375,-0.5625 l 0,4.875 10.5015,0 z"
       id="path3299"
       style="fill:#b3b3b3;fill-opacity:1;fill-rule:nonzero;stroke:#000000;stroke-width:0.60000002;stroke-linecap:butt;stroke-linejoin:miter;stroke-miterlimit:4;stroke-opacity:1;stroke-dasharray:none" /><path
       d="m 15.92775,431.48447 0,3.1875 -3.687,1.188 0.8745,2.3745 2.8125,-0.9375 -0.0375,1.407 6.5265,0.0555 -0.0375,-7.275 -6.4515,0 z"
       id="path3301"
       style="fill:#b3b3b3;fill-opacity:1;fill-rule:nonzero;stroke:#000000;stroke-width:0.60000002;stroke-linecap:butt;stroke-linejoin:miter;stroke-miterlimit:4;stroke-opacity:1;stroke-dasharray:none" /><path
       d="m 21.67875,438.73397 -4.938,0 c 0,0 0,2.064 0,3.0015 0,0.9375 0.1875,1.875 1.3125,2.4375 0.6255,0.312 1.2495,0.5625 2.0625,0.1875 1.239,-0.573 1.626,-1.296 1.563,-2.25 -0.063,-0.9375 0,-3.3765 0,-3.3765 z"
       id="path3303"
       style="fill:#b3b3b3;fill-opacity:1;fill-rule:nonzero;stroke:#000000;stroke-width:0.60000002;stroke-linecap:butt;stroke-linejoin:miter;stroke-miterlimit:4;stroke-opacity:1;stroke-dasharray:none" /><path
       d="m 10.80375,439.23497 c 0,0 1.5255,-0.6945 0,0 -2.7495,1.2495 -3.8235,1.254 -4.125,1.1865 m 4.6875,-3.1245 c -1.5,0.1875 -3.3765,1.188 -10.5015,-0.4995 m 9.3765,-0.438 c -1.6875,0 -7.7505,-0.6255 -10.7505,-2.937 m 10.7505,1.6245 c -2.355,0 -9.7095,-3.282 -12.5325,-6.594"
       id="path3305"
       style="fill:none;stroke:#00a1ee;stroke-width:0.75;stroke-linecap:butt;stroke-linejoin:miter;stroke-miterlimit:4;stroke-opacity:1;stroke-dasharray:none" /><path
       d="m 16.86525,383.31947 0,43.7775 4.8765,0.75 0,-44.5275 -4.8765,0"
       id="path3307"
       style="fill:#b1dbfa;fill-opacity:1;fill-rule:nonzero;stroke:none" /><path
       d="m 16.86525,383.31947 0,43.7775 4.8765,0.75 0,-44.5275 -4.8765,0 z"
       id="path3309"
       style="fill:none;stroke:#000000;stroke-width:0.60000002;stroke-linecap:butt;stroke-linejoin:miter;stroke-miterlimit:4;stroke-opacity:1;stroke-dasharray:none" /><path
       d="m 395.81175,380.82347 6.696,10.965 -9.3975,-8.628 2.7015,-2.337"
       id="path3311"
       style="fill:#00a1ee;fill-opacity:1;fill-rule:nonzero;stroke:none" /><path
       d="m 226.54125,421.75247 c 1.617,-24.402 4.8,-25.4445 22.11,-46.293 0.8745,-1.0545 1.899,-8.43 2.6685,-19.6455 1.5525,-22.6035 34.9695,-35.571 46.011,-37.4595 17.757,-3.3975 24.78,-5.0055 54.1635,1.3485 17.373,6.2775 28.3395,16.6125 36.048,37.488 0.324,0.8775 1.5345,17.2785 1.968,18.174 0.102,0.21 5.6805,7.065 5.6805,7.065"
       id="path3313"
       style="fill:none;stroke:#00a1ee;stroke-width:1.20000005;stroke-linecap:butt;stroke-linejoin:miter;stroke-miterlimit:4;stroke-opacity:1;stroke-dasharray:none" /><path
       d="m 414.23925,378.99647 -2.187,12.66 5.5605,-11.4825 -3.3735,-1.1775"
       id="path3315"
       style="fill:#00a1ee;fill-opacity:1;fill-rule:nonzero;stroke:none" /><g
       transform="matrix(1.5,0,0,1.5,-108.35775,-200.24953)"
       id="g3317"><g
         clip-path="url(#clipPath3321)"
         id="g3319"><path
           d="m 385.853,302.206 c -11.536,3.432 -16.813,8.871 -17.507,14.696 0.079,2.402 -1.019,17.997 -0.774,19.399 -7.636,6.921 -15.895,25.173 -16.865,35.326 -0.059,0.621 -0.746,11.294 -0.645,11.949 0.099,0.641 -0.787,3.543 -0.787,3.543"
           id="path3325"
           style="fill:none;stroke:#00a1ee;stroke-width:0.80000001;stroke-linecap:butt;stroke-linejoin:miter;stroke-miterlimit:4;stroke-opacity:1;stroke-dasharray:none" /></g></g><path
       d="m 424.65675,381.23147 -7.131,10.6875 9.7365,-8.2455 -2.6055,-2.442"
       id="path3327"
       style="fill:#00a1ee;fill-opacity:1;fill-rule:nonzero;stroke:none" /><g
       transform="matrix(1.5,0,0,1.5,-108.35775,-200.24953)"
       id="g3329"><g
         clip-path="url(#clipPath3333)"
         id="g3331"><path
           d="m 385.74,345.801 c -11.583,4.185 -19.393,12.409 -24.532,26.326 -0.216,0.585 -0.45,11.027 -0.791,11.595 -0.563,0.938 -3.909,4.483 -4.721,5.17"
           id="path3337"
           style="fill:none;stroke:#00a1ee;stroke-width:0.80000001;stroke-linecap:butt;stroke-linejoin:miter;stroke-miterlimit:4;stroke-opacity:1;stroke-dasharray:none" /></g></g><path
       d="m 322.51575,518.38547 -3.177,-0.072 -2.5605,-4.527 0.432,-2.868 c 0,0 3.948,1.2285 3.777,1.407 0.264,-0.2775 3.2655,-5.0475 3.2655,-5.0475 l 3.624,1.1145 0.837,5.019 0.558,0 c 0.8355,-0.279 3.345,-1.1145 3.345,-1.1145 l -0.837,3.066 2.5095,1.9515 0.558,3.6255 0,0.8355 c 0,0 -5.436,0.558 -6.273,0.837 l -4.3215,-1.6725 c 0,0 -2.574,-1.7175 -1.737,-2.5545"
       id="path3395"
       style="fill:#a2cf99;fill-opacity:1;fill-rule:nonzero;stroke:none" /><path
       d="m 320.11875,496.95197 -2.5575,-1.3155 -0.549,6.624 0.747,5.4585 2.1945,2.9055 2.4285,-1.1235 1.599,-3.573 2.187,-2.8965 2.5815,-1.6815 -2.8245,-1.32 -2.5605,-3.2055 -3.246,0.1275"
       id="path3397"
       style="fill:#a2cf99;fill-opacity:1;fill-rule:nonzero;stroke:none" /><path
       d="m 337.07775,508.25447 -3.624,-0.6975 -3.456,-4.9215 1.6365,-3.654 2.061,1.02 c 0,0 3.1035,1.422 3.9405,0.864 0.8355,-0.558 3.975,-3.4905 4.812,-3.4905 0.837,0 0.9975,5.046 0.9975,5.046 l 0.8805,2.6265 0.558,3.0675 -3.345,1.9515 2.2305,2.2305 0,3.7635 -4.3215,2.649 -4.461,0.975 0,-2.2305 -0.837,-1.9515 0.4185,-5.157 1.3935,-1.395 1.116,-0.696"
       id="path3399"
       style="fill:#a2cf99;fill-opacity:1;fill-rule:nonzero;stroke:none" /><path
       d="m 331.08375,512.71547 c -2.2305,-6.135 -0.903,-18.774 -0.1845,-23.352 m 7.2705,10.608 c -2.8965,-3.2055 -4.491,-5.0685 -7.05,-12.984 m -6.573,10.989 c 0,0 3.9735,-3.969 6.213,-13.5855"
       id="path3401"
       style="fill:none;stroke:#666666;stroke-width:1.5;stroke-linecap:butt;stroke-linejoin:miter;stroke-miterlimit:4;stroke-opacity:1;stroke-dasharray:none" /><path
       d="m 327.01875,508.03397 3.051,-8.7285 m 4.521,11.634 c -1.3935,-1.116 -3.6105,-4.593 -4.446,-7.242"
       id="path3403"
       style="fill:none;stroke:#666666;stroke-width:1.20000005;stroke-linecap:butt;stroke-linejoin:miter;stroke-miterlimit:4;stroke-opacity:1;stroke-dasharray:none" /><path
       d="m 330.62925,490.14647 c 0,-0.78 0.198,-8.316 0.198,-11.88"
       id="path3405"
       style="fill:none;stroke:#666666;stroke-width:2.0999999;stroke-linecap:butt;stroke-linejoin:miter;stroke-miterlimit:4;stroke-opacity:1;stroke-dasharray:none" /><path
       d="m 385.51125,517.41047 3.639,-0.084 2.9355,-5.1855 -0.495,-3.2865 c 0,0 -4.524,1.407 -4.3305,1.611 -0.3015,-0.3165 -3.741,-5.7825 -3.741,-5.7825 l -4.152,1.2765 -1.371,1.626 -2.7015,0.825 c -0.9585,-0.3195 -1.359,2.022 -1.359,2.022 l 0.9585,3.5145 -2.8755,2.2365 -1.6695,4.7715 2.0625,0.339 c 0,0 5.1975,0.639 6.156,0.9585 l 4.9515,-1.917 c 0,0 2.9505,-1.9665 1.992,-2.925"
       id="path3407"
       style="fill:#a2cf99;fill-opacity:1;fill-rule:nonzero;stroke:none" /><path
       d="m 388.46175,492.85097 2.9325,-1.5075 0.6285,7.5885 -0.8565,6.255 -2.514,3.33 -2.7825,-1.2885 -2.04,-5.3295 -2.298,-0.0195 -4.815,-4.8135 3.237,-1.515 4.791,-2.8455 3.717,0.1455"
       id="path3409"
       style="fill:#a2cf99;fill-opacity:1;fill-rule:nonzero;stroke:none" /><path
       d="m 365.77125,506.59997 6.135,1.5975 0.4785,5.91 -3.021,2.8545 0,2.5545 -5.1105,-1.1175 -2.889,-3.654 0,-4.3125 0.081,-3.792 c 0.4125,-0.207 2.1255,1.761 2.7435,1.968 0.6195,0.2055 1.5825,-2.0085 1.5825,-2.0085"
       id="path3411"
       style="fill:#a2cf99;fill-opacity:1;fill-rule:nonzero;stroke:none" /><path
       d="m 364.28775,504.76997 7.452,1.6755 3.3405,-5.6385 -2.082,-5.0115 -0.0915,0.549 c 0,0 -1.9065,-2.9085 -2.865,-3.5475 -0.9585,-0.639 -2.286,-0.081 -3.2445,-0.081 -0.9585,0 -2.7945,-1.8495 -2.7945,-1.8495 l -2.865,7.341 2.2485,4.1325 0.9015,2.43"
       id="path3413"
       style="fill:#a2cf99;fill-opacity:1;fill-rule:nonzero;stroke:none" /><path
       d="m 376.10625,508.23047 c 0.711,-1.9575 -1.179,-31.3935 0.003,-23.868 m -6.4725,8.2365 c 3.318,-3.675 3.0825,-2.0955 6.015,-11.166 m 6.705,12.591 c 0,0 -3.552,-3.7965 -6.294,-15.5655"
       id="path3415"
       style="fill:none;stroke:#666666;stroke-width:1.5;stroke-linecap:butt;stroke-linejoin:miter;stroke-miterlimit:4;stroke-opacity:1;stroke-dasharray:none" /><path
       d="m 379.52625,495.44147 -3.393,-5.2575"
       id="path3417"
       style="fill:none;stroke:#666666;stroke-width:1.20000005;stroke-linecap:butt;stroke-linejoin:miter;stroke-miterlimit:4;stroke-opacity:1;stroke-dasharray:none" /><path
       d="m 376.00725,484.84697 c 0,-0.8955 -0.2265,-6.0225 -0.2265,-10.107"
       id="path3419"
       style="fill:none;stroke:#666666;stroke-width:2.0999999;stroke-linecap:butt;stroke-linejoin:miter;stroke-miterlimit:4;stroke-opacity:1;stroke-dasharray:none" /><path
       d="m 379.73175,505.54847 -3.2895,-7.527 m -3.7365,-1.932 c 1.6545,-1.323 2.991,-7.557 3.033,-9.3285 m -3.651,22.4265 c 1.6545,-1.3245 3.9195,-7.041 3.96,-8.8125"
       id="path3421"
       style="fill:none;stroke:#666666;stroke-width:1.20000005;stroke-linecap:butt;stroke-linejoin:miter;stroke-miterlimit:4;stroke-opacity:1;stroke-dasharray:none" /><path
       d="m 342.00975,482.38247 c 0,0 1.089,-1.8 1.0785,-1.893 l 3.1755,-0.0735 2.562,-4.5255 -0.4335,-2.8695 c 0,0 -3.9465,1.2285 -3.777,1.407 -0.264,-0.276 -3.2655,-5.046 -3.2655,-5.046 l -3.624,1.1145 -0.837,5.019 -0.5565,0 c -0.837,-0.279 -3.3465,-1.116 -3.3465,-1.116 l 0.837,3.0675 -2.5095,1.9515 -0.558,3.624 4.62,0.672 6.6345,-1.332"
       id="path3423"
       style="fill:#a2cf99;fill-opacity:1;fill-rule:nonzero;stroke:none" /><path
       d="m 346.80375,457.57097 1.5675,2.8095 0.5505,6.6225 -1.0785,2.8185 -2.1945,2.9055 -2.4285,-1.1235 -1.599,-3.5715 -2.187,-2.898 -2.5815,-1.68 2.8245,-1.3215 2.562,-3.204 4.5645,-1.3575"
       id="path3425"
       style="fill:#a2cf99;fill-opacity:1;fill-rule:nonzero;stroke:none" /><path
       d="m 320.67525,459.51647 c -0.1305,1.2075 1.482,5.0085 1.482,5.0085 l -1.3755,5.9265 4.887,2.241 -2.595,0.7965 -2.5605,0.4155 1.32,4.2585 4.3215,2.649 4.461,0.975 0,-2.229 0.837,-1.9515 -0.4185,-5.1585 -1.3935,-1.3935 -1.446,-2.0175 3.6255,-0.3675 3.7845,-3.9315 -1.6365,-3.6525 -2.061,1.0185 c 0,0 -3.1035,1.422 -3.939,0.8655 -0.837,-0.558 -3.9765,-3.492 -4.8135,-3.492 -0.435,0 -1.182,-0.282 -2.4795,0.039"
       id="path3427"
       style="fill:#a2cf99;fill-opacity:1;fill-rule:nonzero;stroke:none" /><path
       d="m 334.51875,474.81797 c 2.2305,-6.1335 0.903,-18.7725 0.1845,-23.3505 m -7.269,10.608 c 2.8965,-3.207 4.656,-2.7585 7.2135,-10.674 m 6.408,8.6775 c 0,0 -3.9735,-3.969 -6.213,-13.584"
       id="path3429"
       style="fill:none;stroke:#666666;stroke-width:1.5;stroke-linecap:butt;stroke-linejoin:miter;stroke-miterlimit:4;stroke-opacity:1;stroke-dasharray:none" /><path
       d="m 338.58375,470.13647 -3.051,-8.7285 m -4.521,11.634 c 1.395,-1.1145 3.6105,-4.5915 4.4475,-7.2405"
       id="path3431"
       style="fill:none;stroke:#666666;stroke-width:1.20000005;stroke-linecap:butt;stroke-linejoin:miter;stroke-miterlimit:4;stroke-opacity:1;stroke-dasharray:none" /><path
       d="m 334.97475,452.25047 c 0,-0.7815 -0.198,-4.686 -0.198,-8.25"
       id="path3433"
       style="fill:none;stroke:#666666;stroke-width:2.0999999;stroke-linecap:butt;stroke-linejoin:miter;stroke-miterlimit:4;stroke-opacity:1;stroke-dasharray:none" /><path
       d="m 231.69525,524.11697 3.024,2.268 4.158,-1.512 2.646,-4.536 3.024,-3.402 -0.378,-6.804 -5.292,-3.78 c 0,0 -1.512,-3.78 -2.646,-4.158 -1.134,-0.378 -3.78,0 -4.914,1.89 -1.134,1.89 -2.646,7.56 -2.646,7.56 l 3.78,6.048 -0.756,6.426"
       id="path3435"
       style="fill:#95c48c;fill-opacity:1;fill-rule:nonzero;stroke:none" /><path
       d="m 213.92925,510.50897 4.914,1.512 5.67,-0.378 1.134,-4.158 c 0,0 0,-3.024 -1.512,-3.024 -1.512,0 -5.67,0.378 -5.67,0.378 l -4.536,5.67"
       id="path3437"
       style="fill:#95c48c;fill-opacity:1;fill-rule:nonzero;stroke:none" /><path
       d="m 227.60175,515.37797 -0.606,-21.6735"
       id="path3439"
       style="fill:none;stroke:#333333;stroke-width:1.5;stroke-linecap:butt;stroke-linejoin:miter;stroke-miterlimit:4;stroke-opacity:1;stroke-dasharray:none" /><path
       d="m 227.53725,515.80097 -0.378,11.34 m 0,-26.838 c 1.323,3.213 2.268,3.969 3.402,4.914 m -3.024,0.378 c -1.782,5.7915 -2.1675,7.9755 -3.402,9.828 m 8.694,14.364 c -1.701,-2.646 -3.969,-6.048 -5.103,-11.529"
       id="path3441"
       style="fill:none;stroke:#333333;stroke-width:0.90000004;stroke-linecap:butt;stroke-linejoin:miter;stroke-miterlimit:4;stroke-opacity:1;stroke-dasharray:none" /><path
       d="m 232.82925,536.59247 6.804,-5.67 -2.268,-3.7815 c 0,0 -5.292,3.7815 -6.804,3.024 -1.512,-0.756 -5.292,-4.158 -5.292,-4.158 0,0 -7.182,-0.378 -7.938,0 l -1.5135,3.024 c 0,0 3.4035,3.4035 3.4035,4.5375 0,1.134 7.56,4.536 7.56,4.536 l 6.048,-1.512"
       id="path3443"
       style="fill:#95c48c;fill-opacity:1;fill-rule:nonzero;stroke:none" /><path
       d="m 219.22125,524.11697 3.402,0.756 1.89,-5.292 c 0,0 3.402,-3.78 -0.378,-4.158 -3.78,-0.378 -9.45,-1.512 -9.45,-1.512 l 0.7545,7.182 3.7815,3.024"
       id="path3445"
       style="fill:#95c48c;fill-opacity:1;fill-rule:nonzero;stroke:none" /><path
       d="m 17.06325,485.53397 -0.516,-21.3855"
       id="path3447"
       style="fill:none;stroke:#333333;stroke-width:1.80000007;stroke-linecap:butt;stroke-linejoin:miter;stroke-miterlimit:4;stroke-opacity:1;stroke-dasharray:none" /><path
       d="m 16.83075,474.91847 c 0,5.6085 4.1865,9.669 5.166,10.5315"
       id="path3449"
       style="fill:none;stroke:#333333;stroke-width:1.20000005;stroke-linecap:butt;stroke-linejoin:miter;stroke-miterlimit:4;stroke-opacity:1;stroke-dasharray:none" /><path
       d="m 16.87125,501.58397 -3.588,-2.67 -3.168,-5.346 -3.366,1.386 -2.178,4.752 1.98,4.356 3.564,1.9815 0.792,3.168 3.168,-1.188 4.356,2.376 5.1495,-1.584 3.564,-2.5245 3.1185,-3.1695 c 0.8415,-2.6235 4.0095,-4.9995 4.0095,-4.9995 l -3.564,-4.356 c 0,0 -1.98,-1.584 -3.168,-1.188 -1.188,0.396 -3.564,1.98 -4.752,1.584 -1.188,-0.396 -3.96,-1.584 -4.752,-0.396 -0.7935,1.188 0.9405,4.4055 0.9405,4.4055 l 3.2175,2.4255 -1.386,2.277 -3.9375,-1.29"
       id="path3451"
       style="fill:#95c48c;fill-opacity:1;fill-rule:nonzero;stroke:none" /><path
       d="m 6.15525,491.19197 1.782,1.98 6.534,-3.366 c 0,0 0.792,-2.376 0.792,-3.564 0,-1.188 -0.792,-5.544 -0.792,-5.544 l -5.544,-2.376 -2.376,2.376 1.98,3.168 -2.574,1.188 -1.584,2.376 1.782,3.762"
       id="path3453"
       style="fill:#95c48c;fill-opacity:1;fill-rule:nonzero;stroke:none" /><path
       d="m 21.99675,485.44997 -0.594,-5.346 4.95,-1.188 5.148,0.792 -0.792,2.97 2.772,3.96 0.792,3.96 -3.96,1.188 -3.96,0 -4.752,-1.188 -2.376,-3.564 2.772,-1.584"
       id="path3455"
       style="fill:#95c48c;fill-opacity:1;fill-rule:nonzero;stroke:none" /><path
       d="m 18.57675,489.88847 -4.1055,9.669 m 2.463,-16.278 c -0.396,3.96 2.487,8.7045 4.2705,10.0905 m -4.0725,-7.3635 c -0.99,6.732 -2.661,7.9575 -5.631,9.7395"
       id="path3457"
       style="fill:none;stroke:#333333;stroke-width:0.90000004;stroke-linecap:butt;stroke-linejoin:miter;stroke-miterlimit:4;stroke-opacity:1;stroke-dasharray:none" /><path
       d="m 16.81125,472.54547 c -0.5565,3.9615 -2.31,5.4045 -3.8235,7.542"
       id="path3459"
       style="fill:none;stroke:#333333;stroke-width:1.20000005;stroke-linecap:butt;stroke-linejoin:miter;stroke-miterlimit:4;stroke-opacity:1;stroke-dasharray:none" /><path
       d="m 163.14975,491.95097 -0.5625,-23.3295"
       id="path3461"
       style="fill:none;stroke:#333333;stroke-width:1.80000007;stroke-linecap:butt;stroke-linejoin:miter;stroke-miterlimit:4;stroke-opacity:1;stroke-dasharray:none" /><path
       d="m 162.89625,480.37097 c 0,6.12 4.566,10.548 5.634,11.4885"
       id="path3463"
       style="fill:none;stroke:#333333;stroke-width:1.20000005;stroke-linecap:butt;stroke-linejoin:miter;stroke-miterlimit:4;stroke-opacity:1;stroke-dasharray:none" /><path
       d="m 162.93975,509.46197 -3.9135,-2.913 -3.456,-5.832 -3.672,1.512 -2.376,5.184 2.16,4.752 3.888,2.16 0.864,3.456 3.456,-1.296 4.752,2.592 5.616,-1.728 3.888,-2.754 3.4035,-3.456 c 0.918,-2.862 4.374,-5.454 4.374,-5.454 l -3.888,-4.752 c 0,0 -2.1615,-1.728 -3.4575,-1.296 -1.296,0.432 -3.888,2.16 -5.184,1.728 -1.296,-0.432 -4.32,-1.728 -5.184,-0.432 -0.864,1.296 1.026,4.806 1.026,4.806 l 3.51,2.646 -1.512,2.484 -4.2945,-1.407"
       id="path3465"
       style="fill:#95c48c;fill-opacity:1;fill-rule:nonzero;stroke:none" /><path
       d="m 151.25025,498.12497 1.944,2.16 7.128,-3.672 c 0,0 0.864,-2.592 0.864,-3.888 0,-1.2975 -0.864,-6.0495 -0.864,-6.0495 l -6.048,-2.592 -2.592,2.592 2.16,3.456 -2.808,1.296 -1.728,2.5935 1.944,4.104"
       id="path3467"
       style="fill:#95c48c;fill-opacity:1;fill-rule:nonzero;stroke:none" /><path
       d="m 168.53025,491.85947 -0.648,-5.832 5.4,-1.296 5.6175,0.864 -0.864,3.24 3.024,4.3215 0.864,4.32 -4.32,1.296 -4.3215,0 -5.184,-1.296 -2.592,-3.888 3.024,-1.7295"
       id="path3469"
       style="fill:#95c48c;fill-opacity:1;fill-rule:nonzero;stroke:none" /><path
       d="m 164.79975,496.70297 -4.4775,10.548 m 2.6865,-17.7585 c -0.432,4.3215 2.7135,9.4965 4.6575,11.0085 m -4.4415,-8.0325 c -1.08,7.344 -2.9025,8.6805 -6.1425,10.6245"
       id="path3471"
       style="fill:none;stroke:#333333;stroke-width:0.90000004;stroke-linecap:butt;stroke-linejoin:miter;stroke-miterlimit:4;stroke-opacity:1;stroke-dasharray:none" /><path
       d="m 162.87375,477.78347 c -0.6075,4.32 -2.52,5.895 -4.1715,8.226"
       id="path3473"
       style="fill:none;stroke:#333333;stroke-width:1.20000005;stroke-linecap:butt;stroke-linejoin:miter;stroke-miterlimit:4;stroke-opacity:1;stroke-dasharray:none" /><path
       d="m 1.56075,476.39447 -1.521,-31.3455"
       id="path3475"
       style="fill:none;stroke:#333333;stroke-width:1.5;stroke-linecap:butt;stroke-linejoin:miter;stroke-miterlimit:4;stroke-opacity:1;stroke-dasharray:none" /><path
       d="m 0.98025,452.10197 c -1.0695,2.673 -0.801,6.414 -2.94,11.226 m 3.207,-6.4155 c 0,2.9415 4.812,8.019 7.218,9.0885"
       id="path3477"
       style="fill:none;stroke:#333333;stroke-width:1.20000005;stroke-linecap:butt;stroke-linejoin:miter;stroke-miterlimit:4;stroke-opacity:1;stroke-dasharray:none" /><path
       d="m 2.85225,500.21747 6.9495,-2.139 4.812,-3.7425 -4.2765,-5.88 -4.278,1.6035 -6.9495,-0.5355 -3.2085,2.6745 -4.2765,2.1375 1.0695,4.2765 4.2765,-1.6035 5.8815,3.2085"
       id="path3479"
       style="fill:#95c48c;fill-opacity:1;fill-rule:nonzero;stroke:none" /><path
       d="m -13.18725,491.66297 4.812,2.673 2.673,-4.2765 1.6035,-5.346 -4.2765,-7.218 -4.5435,1.872 -2.9415,6.4155 2.673,5.88"
       id="path3481"
       style="fill:#95c48c;fill-opacity:1;fill-rule:nonzero;stroke:none" /><path
       d="m 15.46425,462.79397 -2.9895,2.673 -4.812,1.0695 -3.741,2.1375 3.207,4.812 6.4155,1.6035 1.386,0 5.346,-1.6035 -1.0695,-5.346 -3.7425,-5.346"
       id="path3483"
       style="fill:#95c48c;fill-opacity:1;fill-rule:nonzero;stroke:none" /><path
       d="m 10.33725,488.45597 c 0,0 5.346,-0.5355 7.4835,-1.0695 2.139,-0.5355 2.4555,-3.7425 2.4555,-3.7425 l -4.812,-5.8815 c 0,0 1.287,-2.1375 -0.3165,-1.6035 -1.6035,0.5355 -4.8105,2.673 -6.4155,2.139 -1.6035,-0.5355 -5.346,-2.139 -6.4155,-0.5355 -1.0695,1.605 -1.0695,6.951 -1.0695,6.951 l 5.3475,1.6035 3.7425,2.139"
       id="path3485"
       style="fill:#95c48c;fill-opacity:1;fill-rule:nonzero;stroke:none" /><path
       d="m -13.72125,474.28847 2.406,2.673 8.8215,-4.545 c 0,0 1.068,-3.207 1.068,-4.812 0,-1.6035 -1.068,-7.4835 -1.068,-7.4835 l -5.835,-1.146 -4.8585,1.146 2.673,4.2765 -3.474,1.6035 -2.139,3.2085 2.406,5.079"
       id="path3487"
       style="fill:#95c48c;fill-opacity:1;fill-rule:nonzero;stroke:none" /><path
       d="m 5.79225,463.86347 7.218,0 2.1375,-3.2085 -1.287,-3.207 -5.979,-2.139 -3.693,2.673 1.6035,5.8815"
       id="path3489"
       style="fill:#95c48c;fill-opacity:1;fill-rule:nonzero;stroke:none" /><path
       d="m 1.51575,476.42597 -4.0095,14.1675 m 3.741,-27.2655 c -0.534,5.346 2.9415,12.0285 5.3475,13.9005 m -5.079,-12.0285 c -1.3365,9.0885 -4.0095,12.831 -8.019,15.2355 m 9.3555,9.357 -4.0095,-5.346"
       id="path3491"
       style="fill:none;stroke:#333333;stroke-width:0.90000004;stroke-linecap:butt;stroke-linejoin:miter;stroke-miterlimit:4;stroke-opacity:1;stroke-dasharray:none" /><path
       d="m 189.55125,510.25247 -0.5625,-23.3295"
       id="path3493"
       style="fill:none;stroke:#333333;stroke-width:1.5;stroke-linecap:butt;stroke-linejoin:miter;stroke-miterlimit:4;stroke-opacity:1;stroke-dasharray:none" /><path
       d="m 189.19425,493.88447 c -1.602,4.002 -1.8765,7.1955 -5.1885,9.6345 m 5.517,-3.4965 c 0,2.376 3.141,8.1405 5.409,10.1385"
       id="path3495"
       style="fill:none;stroke:#333333;stroke-width:1.20000005;stroke-linecap:butt;stroke-linejoin:miter;stroke-miterlimit:4;stroke-opacity:1;stroke-dasharray:none" /><path
       d="m 189.34125,527.76197 -3.9135,-2.913 -3.456,-5.832 -3.6735,1.512 -2.376,5.184 2.16,4.7535 3.8895,2.16 0.864,3.456 3.456,-1.296 4.752,2.592 5.616,-1.728 3.888,-2.754 3.402,-3.456 c 0.918,-2.8635 4.374,-5.4555 4.374,-5.4555 l -3.888,-4.752 c 0,0 -2.16,-1.728 -3.456,-1.296 -1.296,0.432 -3.888,2.16 -5.184,1.728 -1.296,-0.432 -4.32,-1.728 -5.184,-0.432 -0.864,1.296 1.026,4.806 1.026,4.806 l 3.51,2.646 -1.512,2.4855 -4.2945,-1.4085"
       id="path3497"
       style="fill:#95c48c;fill-opacity:1;fill-rule:nonzero;stroke:none" /><path
       d="m 177.65025,516.42497 1.944,2.16 7.1295,-3.672 c 0,0 0.864,-2.592 0.864,-3.888 0,-1.971 -0.864,-6.048 -0.864,-6.048 l -6.048,-2.592 -2.5935,2.592 2.1615,3.456 -2.8095,1.296 -1.728,2.592 1.944,4.104"
       id="path3499"
       style="fill:#95c48c;fill-opacity:1;fill-rule:nonzero;stroke:none" /><path
       d="m 194.93175,510.16097 -0.648,-5.832 5.4,-1.296 5.616,0.864 -0.864,3.24 3.024,4.32 0.864,4.32 -4.32,1.296 -4.32,0 -5.184,-1.296 -2.592,-3.888 3.024,-1.728"
       id="path3501"
       style="fill:#95c48c;fill-opacity:1;fill-rule:nonzero;stroke:none" /><path
       d="m 190.86375,515.00297 -4.14,10.548 m 2.6865,-17.4195 c -0.432,4.32 2.7135,9.1575 4.6575,10.6695 m -4.6665,-8.2575 c -1.08,7.344 -2.6775,8.9055 -5.9175,10.8495"
       id="path3503"
       style="fill:none;stroke:#333333;stroke-width:0.90000004;stroke-linecap:butt;stroke-linejoin:miter;stroke-miterlimit:4;stroke-opacity:1;stroke-dasharray:none" /><path
       d="m 429.93075,471.50747 -0.516,-25.5105"
       id="path3505"
       style="fill:none;stroke:#333333;stroke-width:1.5;stroke-linecap:butt;stroke-linejoin:miter;stroke-miterlimit:4;stroke-opacity:1;stroke-dasharray:none" /><path
       d="m 429.60375,456.50297 c -1.4685,3.6705 -1.7205,6.597 -4.7565,8.832 m 5.058,-3.2055 c 0,2.178 2.8785,7.4625 4.9575,9.294"
       id="path3507"
       style="fill:none;stroke:#333333;stroke-width:1.20000005;stroke-linecap:butt;stroke-linejoin:miter;stroke-miterlimit:4;stroke-opacity:1;stroke-dasharray:none" /><path
       d="m 429.73875,487.55897 -3.588,-2.67 -3.168,-5.346 -3.366,1.386 -2.178,4.752 1.98,4.356 3.564,1.98 0.792,3.168 3.168,-1.188 4.356,2.376 5.148,-1.584 3.564,-2.5245 3.12,-3.168 c 0.8415,-2.6235 4.0095,-4.9995 4.0095,-4.9995 l -3.564,-4.356 c 0,0 -1.98,-1.584 -3.168,-1.188 -1.188,0.396 -3.5655,1.98 -4.7535,1.584 -1.188,-0.396 -3.96,-1.584 -4.752,-0.396 -0.792,1.188 0.9405,4.4055 0.9405,4.4055 l 3.2175,2.4255 -1.386,2.277 -3.936,-1.29"
       id="path3509"
       style="fill:#95c48c;fill-opacity:1;fill-rule:nonzero;stroke:none" /><path
       d="m 419.02275,477.16697 1.782,1.98 6.534,-3.3675 c 0,0 0.792,-2.376 0.792,-3.564 0,-1.806 -0.792,-5.544 -0.792,-5.544 l -5.544,-2.376 -2.376,2.376 1.98,3.168 -2.574,1.188 -1.584,2.376 1.782,3.7635"
       id="path3511"
       style="fill:#95c48c;fill-opacity:1;fill-rule:nonzero;stroke:none" /><path
       d="m 434.86275,471.42347 -0.594,-5.346 4.9515,-1.188 5.148,0.792 -0.792,2.97 2.772,3.96 0.792,3.96 -3.96,1.1895 -3.96,0 -4.7535,-1.1895 -2.376,-3.564 2.772,-1.584"
       id="path3513"
       style="fill:#95c48c;fill-opacity:1;fill-rule:nonzero;stroke:none" /><path
       d="m 431.13375,475.86197 -3.795,9.6705 m 2.463,-15.969 c -0.396,3.96 2.487,8.3955 4.269,9.7815 m -4.278,-7.5705 c -0.99,6.732 -2.454,8.1645 -5.424,9.9465"
       id="path3515"
       style="fill:none;stroke:#333333;stroke-width:0.90000004;stroke-linecap:butt;stroke-linejoin:miter;stroke-miterlimit:4;stroke-opacity:1;stroke-dasharray:none" /><path
       d="m 404.90025,491.79497 1.5195,-31.344"
       id="path3517"
       style="fill:none;stroke:#333333;stroke-width:1.5;stroke-linecap:butt;stroke-linejoin:miter;stroke-miterlimit:4;stroke-opacity:1;stroke-dasharray:none" /><path
       d="m 406.09875,470.18297 c 0.8835,3.3675 3.3585,7.08 6.24,8.5455 m -6.507,-6.4155 c 0,2.9415 -6.462,9.051 -8.868,10.1205"
       id="path3519"
       style="fill:none;stroke:#333333;stroke-width:1.20000005;stroke-linecap:butt;stroke-linejoin:miter;stroke-miterlimit:4;stroke-opacity:1;stroke-dasharray:none" /><path
       d="m 403.60875,515.61797 -6.9495,-2.139 -4.812,-3.7425 4.2765,-5.88 4.278,1.6035 6.9495,-0.534 3.2085,2.673 4.2765,2.1375 -1.0695,4.278 -4.2765,-1.605 -5.8815,3.2085"
       id="path3521"
       style="fill:#95c48c;fill-opacity:1;fill-rule:nonzero;stroke:none" /><path
       d="m 419.64675,507.06347 -4.8105,2.673 -2.673,-4.2765 -1.6035,-5.346 4.2765,-7.218 4.5435,1.872 2.9415,6.4155 -2.6745,5.88"
       id="path3523"
       style="fill:#95c48c;fill-opacity:1;fill-rule:nonzero;stroke:none" /><path
       d="m 397.72875,493.69847 c 0,0 6.1605,-0.966 6.4155,-0.534 0.9795,1.659 1.068,6.9495 1.068,6.9495 l -5.346,1.6035 -3.7425,2.139 c 0,0 -5.346,-0.5355 -7.4835,-1.0695 l -2.4555,-3.7425 1.923,-6.705 2.58,-3.732 0.4125,-4.125 -0.825,-2.2695 4.125,-1.2375 4.7445,2.8875 -1.857,5.5695 c -0.618,1.0305 0.441,4.266 0.441,4.266"
       id="path3525"
       style="fill:#95c48c;fill-opacity:1;fill-rule:nonzero;stroke:none" /><path
       d="m 420.18225,489.68897 -2.406,2.673 -8.8215,-4.545 c 0,0 -1.068,-3.207 -1.068,-4.8105 0,-2.871 0.6555,-3.5655 0.6555,-3.5655 l 5.835,-1.146 5.2695,-2.7735 2.484,4.4835 -1.6815,1.398 2.139,3.207 -2.406,5.079"
       id="path3527"
       style="fill:#95c48c;fill-opacity:1;fill-rule:nonzero;stroke:none" /><path
       d="m 404.94525,491.82797 4.0095,14.166 m -3.5355,-28.7085 c 0.534,5.346 -5.415,12.0285 -7.821,13.9005 m 7.347,-10.5855 c 1.3365,9.0885 4.0095,12.831 8.019,15.237 m -9.3555,9.3555 4.0095,-5.346"
       id="path3529"
       style="fill:none;stroke:#333333;stroke-width:0.90000004;stroke-linecap:butt;stroke-linejoin:miter;stroke-miterlimit:4;stroke-opacity:1;stroke-dasharray:none" /><path
       d="m 308.82675,479.09447 0.207,-17.136"
       id="path3531"
       style="fill:none;stroke:#333333;stroke-width:1.5;stroke-linecap:butt;stroke-linejoin:miter;stroke-miterlimit:4;stroke-opacity:1;stroke-dasharray:none" /><path
       d="m 308.54775,466.35647 c 0,6.7305 5.0235,11.604 6.198,12.6375"
       id="path3533"
       style="fill:none;stroke:#333333;stroke-width:1.20000005;stroke-linecap:butt;stroke-linejoin:miter;stroke-miterlimit:4;stroke-opacity:1;stroke-dasharray:none" /><path
       d="m 307.85325,496.12847 -3.5625,-0.9765 -3.801,-6.4155 -4.0395,1.6635 -2.6145,5.703 2.3775,5.2275 1.8015,6.0885 8.6235,0.831 1.5735,-3.1575 3.7425,-2.0985 -4.101,-6.8655"
       id="path3535"
       style="fill:#95c48c;fill-opacity:1;fill-rule:nonzero;stroke:none" /><path
       d="m 318.44925,505.98347 6.465,-2.565 4.3155,-6.4935 -4.029,-7.95 c 0,0 -2.376,-1.902 -3.801,-1.4265 -1.4265,0.4755 -4.278,2.376 -5.703,1.9005 -1.4265,-0.474 -5.208,1.506 -5.208,1.506 0.3375,0.5745 1.872,4.791 1.872,4.791 l -0.3465,10.3365 6.435,-0.099"
       id="path3537"
       style="fill:#95c48c;fill-opacity:1;fill-rule:nonzero;stroke:none" /><path
       d="m 295.73775,485.88497 2.1375,2.376 7.842,-4.038 c 0,-10e-4 0.9495,-2.853 0.9495,-4.278 0,-1.425 -0.9495,-6.6525 -0.9495,-6.6525 l -6.654,-2.8515 -2.85,2.8515 2.376,3.801 -3.09,1.4265 -1.9005,2.85 2.139,4.515"
       id="path3539"
       style="fill:#95c48c;fill-opacity:1;fill-rule:nonzero;stroke:none" /><path
       d="m 314.74575,478.99397 -0.7125,-6.414 5.94,-1.4265 6.1785,0.951 -0.951,3.564 3.327,4.752 0.951,4.752 -4.7535,1.425 -4.752,0 -5.703,-1.425 -2.85,-4.2765 3.3255,-1.902"
       id="path3541"
       style="fill:#95c48c;fill-opacity:1;fill-rule:nonzero;stroke:none" /><path
       d="m 308.67225,476.39147 c -0.4755,4.752 3.7275,11.187 5.8665,12.8505 m -5.6295,-9.579 c -0.063,7.164 -1.302,11.124 -4.6185,15.489 m 2.649,-4.653 c 1.164,2.763 2.8965,5.238 5.124,7.158"
       id="path3543"
       style="fill:none;stroke:#333333;stroke-width:0.90000004;stroke-linecap:butt;stroke-linejoin:miter;stroke-miterlimit:4;stroke-opacity:1;stroke-dasharray:none" /><path
       d="m 309.14325,463.30397 c -0.669,4.7535 -3.3915,6.6915 -5.208,9.255"
       id="path3545"
       style="fill:none;stroke:#333333;stroke-width:1.20000005;stroke-linecap:butt;stroke-linejoin:miter;stroke-miterlimit:4;stroke-opacity:1;stroke-dasharray:none" /><path
       d="m 215.84475,475.92647 0.225,-18.693"
       id="path3547"
       style="fill:none;stroke:#333333;stroke-width:1.5;stroke-linecap:butt;stroke-linejoin:miter;stroke-miterlimit:4;stroke-opacity:1;stroke-dasharray:none" /><path
       d="m 215.54025,462.03197 c 0,7.3425 5.4795,12.657 6.762,13.7865"
       id="path3549"
       style="fill:none;stroke:#333333;stroke-width:1.20000005;stroke-linecap:butt;stroke-linejoin:miter;stroke-miterlimit:4;stroke-opacity:1;stroke-dasharray:none" /><path
       d="m 214.78275,494.50847 -3.8865,-1.0635 -4.1475,-6.999 -4.4055,1.8135 -2.8515,6.222 2.592,5.703 1.965,6.642 9.408,0.9075 1.7175,-3.4455 4.0815,-2.2905 -4.473,-7.4895"
       id="path3551"
       style="fill:#95c48c;fill-opacity:1;fill-rule:nonzero;stroke:none" /><path
       d="m 226.34175,505.26047 7.053,-2.7975 4.7085,-7.086 -4.3965,-8.6715 c 0,0 -2.592,-2.0745 -4.1475,-1.5555 -1.554,0.5175 -4.665,2.592 -6.2205,2.073 -1.5555,-0.5175 -5.6805,1.6425 -5.6805,1.6425 0.3675,0.6255 2.0415,5.2275 2.0415,5.2275 l -0.378,11.2755 7.02,-0.108"
       id="path3553"
       style="fill:#95c48c;fill-opacity:1;fill-rule:nonzero;stroke:none" /><path
       d="m 201.56475,483.33497 2.334,2.592 8.553,-4.407 c 0,0 1.0365,-3.1095 1.0365,-4.665 0,-1.5555 -1.0365,-7.257 -1.0365,-7.257 l -7.257,-3.111 -3.111,3.111 2.592,4.146 -3.3705,1.5555 -2.073,3.111 2.3325,4.9245"
       id="path3555"
       style="fill:#95c48c;fill-opacity:1;fill-rule:nonzero;stroke:none" /><path
       d="m 222.30225,475.81847 -0.7785,-6.999 6.4815,-1.5555 6.7395,1.0365 -1.038,3.888 3.63,5.1855 1.0365,5.184 -5.184,1.5555 -5.184,0 -6.222,-1.5555 -3.1095,-4.6665 3.6285,-2.073"
       id="path3557"
       style="fill:#95c48c;fill-opacity:1;fill-rule:nonzero;stroke:none" /><path
       d="m 215.67525,472.97747 c -0.5175,5.184 4.0665,12.204 6.4005,14.019"
       id="path3559"
       style="fill:none;stroke:#333333;stroke-width:1.04999995;stroke-linecap:butt;stroke-linejoin:miter;stroke-miterlimit:4;stroke-opacity:1;stroke-dasharray:none" /><path
       d="m 215.93475,476.54747 c -0.069,7.8135 -1.419,12.1335 -5.0385,16.8975 m 2.889,-5.0775 c 1.2705,3.0135 3.1605,5.715 5.5905,7.809"
       id="path3561"
       style="fill:none;stroke:#333333;stroke-width:0.90000004;stroke-linecap:butt;stroke-linejoin:miter;stroke-miterlimit:4;stroke-opacity:1;stroke-dasharray:none" /><path
       d="m 216.18975,458.70047 c -0.729,5.1855 -3.7005,7.3005 -5.682,10.098"
       id="path3563"
       style="fill:none;stroke:#333333;stroke-width:1.20000005;stroke-linecap:butt;stroke-linejoin:miter;stroke-miterlimit:4;stroke-opacity:1;stroke-dasharray:none" /><path
       d="m 238.20675,474.60647 c 0,0 -1.5975,1.26 -1.5975,1.8 0,0.54 0.5325,2.3415 1.065,2.8815 0.5325,0.54 -1.089,1.9575 -1.089,1.9575 l -2.6385,1.1025 -2.901,0.045 -1.6155,1.98 -3.54,-1.0125 -0.768,-3.24 -1.824,-2.0475 -2.4675,-0.7875 -1.4205,-1.8015 3.1725,-2.6775 -0.354,-3.42 -1.599,-2.16 2.4855,-1.98 -2.4855,-1.44 0.711,-1.26 c 0,0 2.841,-1.44 3.3735,-1.62 0.5325,-0.18 1.953,-1.62 1.953,-1.62 0,0 0.8865,-1.8 1.7745,-1.8 0.888,0 3.729,1.44 4.2615,1.8 0.5325,0.36 2.3085,2.7 2.3085,2.7 l 2.4855,2.88 2.3085,2.52 -0.711,2.7 -2.3085,2.52 1.4205,1.98"
       id="path3565"
       style="fill:#62b77e;fill-opacity:1;fill-rule:nonzero;stroke:none" /><path
       d="m 228.77475,451.38047 0.366,6.936"
       id="path3567"
       style="fill:none;stroke:#000000;stroke-width:1.5;stroke-linecap:butt;stroke-linejoin:miter;stroke-miterlimit:4;stroke-opacity:1;stroke-dasharray:none" /><path
       d="m 230.21025,474.06347 -3.729,0.1545 -5.6505,3.0675 -1.4205,-1.8015 3.1725,-2.6775 -0.354,-3.3075 -1.599,-2.16 2.4855,-1.98 -2.4855,-1.44 0.711,-1.26 c 0,0 1.716,-0.99 2.2485,-1.17 0.5325,-0.18 2.628,1.755 2.628,1.755 l 3.1245,-1.35 c 0,0 3.504,0.99 4.0365,1.35 0.5325,0.36 1.6335,-1.125 1.6335,-1.125 l 2.4855,2.88 2.3085,2.52 -0.711,2.7 -2.3085,2.52 -3.33,-0.765 -3.246,2.0895"
       id="path3569"
       style="fill:#62b77e;fill-opacity:1;fill-rule:nonzero;stroke:none" /><path
       d="m 420.29475,462.35147 c 0,0 -1.1715,0.924 -1.1715,1.32 0,0.396 0.39,1.716 0.7815,2.112 0.39,0.396 -0.7995,1.4355 -0.7995,1.4355 l -1.935,0.8085 -2.127,0.033 -1.185,1.452 -2.5965,-0.7425 -0.5625,-2.376 -1.338,-1.5015 -1.809,-0.5775 -1.0425,-1.32 -0.147,-1.9635 1.224,-2.673 -0.1815,-1.419 1.8225,-1.452 -1.8225,-1.0575 0.5205,-0.924 c 0,0 2.0835,-1.056 2.4735,-1.188 0.3915,-0.132 1.4325,-1.188 1.4325,-1.188 0,0 0.651,-1.32 1.302,-1.32 0.651,0 2.7345,1.056 3.1245,1.32 0.3915,0.264 1.6935,1.98 1.6935,1.98 l 1.8225,2.1135 1.692,1.848 -0.5205,1.98 -1.692,1.848 1.041,1.452"
       id="path3571"
       style="fill:#62b77e;fill-opacity:1;fill-rule:nonzero;stroke:none" /><path
       d="m 413.87325,445.81247 -0.228,4.5915"
       id="path3573"
       style="fill:none;stroke:#000000;stroke-width:1.5;stroke-linecap:butt;stroke-linejoin:miter;stroke-miterlimit:4;stroke-opacity:1;stroke-dasharray:none" /><path
       d="m 409.83225,459.95897 -2.241,-1.4355 -0.1815,-1.584 1.8225,-1.452 -1.8225,-1.0575 0.5205,-0.924 c 0,0 1.257,-0.726 1.6485,-0.858 0.39,-0.132 2.4225,-1.518 2.4225,-1.518 l 1.137,-1.485 c 0,0 2.0745,0.726 2.4645,0.99 0.39,0.264 2.352,2.475 2.352,2.475 l 1.8225,2.1135 1.6935,1.848 -0.5205,1.98 -1.6935,1.848 -2.442,-0.561 -2.3805,1.5315 -2.7345,0.1125 -1.8675,-2.0235"
       id="path3575"
       style="fill:#62b77e;fill-opacity:1;fill-rule:nonzero;stroke:none" /><path
       d="m 166.28775,461.59547 c 0,0 1.0215,0.8055 1.0215,1.152 0,0.345 -0.3405,1.497 -0.681,1.8435 -0.3405,0.345 0.6975,1.2525 0.6975,1.2525 l 1.689,0.705 1.8555,0.03 1.0335,1.266 2.2665,-0.648 0.492,-2.073 1.167,-1.311 1.5795,-0.504 0.9075,-1.152 0.1305,-1.713 -1.0695,-2.3325 0.159,-1.239 -1.5915,-1.2675 1.5915,-0.921 -0.4545,-0.807 c 0,0 -1.818,-0.921 -2.1585,-1.0365 -0.342,-0.1155 -1.251,-1.0365 -1.251,-1.0365 0,-0.002 -0.567,-1.1535 -1.1355,-1.1535 -0.5685,0 -2.3865,0.9225 -2.727,1.1535 -0.3405,0.2295 -1.4775,1.728 -1.4775,1.728 l -1.59,1.842 -1.4775,1.614 0.4545,1.728 1.4775,1.6125 -0.909,1.2675"
       id="path3577"
       style="fill:#62b77e;fill-opacity:1;fill-rule:nonzero;stroke:none" /><path
       d="m 171.89175,447.16247 0.198,4.0065"
       id="path3579"
       style="fill:none;stroke:#000000;stroke-width:1.5;stroke-linecap:butt;stroke-linejoin:miter;stroke-miterlimit:4;stroke-opacity:1;stroke-dasharray:none" /><path
       d="m 175.41825,459.50747 1.956,-1.2525 0.159,-1.383 -1.5915,-1.2675 1.5915,-0.921 -0.4545,-0.807 c 0,0 -1.098,-0.633 -1.4385,-0.7485 -0.342,-0.1155 -2.115,-1.3245 -2.115,-1.3245 l -0.9915,-1.2975 c 0,0 -1.8105,0.6345 -2.151,0.864 -0.342,0.231 -2.0535,2.1615 -2.0535,2.1615 l -1.5915,1.842 -1.4775,1.614 0.4545,1.728 1.4775,1.6125 2.1315,-0.489 2.0775,1.3365 2.3865,0.099 1.6305,-1.767"
       id="path3581"
       style="fill:#62b77e;fill-opacity:1;fill-rule:nonzero;stroke:none" /><path
       d="m 450.40725,423.05447 c 0,0 0.9375,0.7395 0.9375,1.056 0,0.318 -0.312,1.374 -0.6255,1.6905 -0.312,0.3165 0.6405,1.1475 0.6405,1.1475 l 1.548,0.648 1.701,0.0255 0.948,1.1625 2.0775,-0.594 0.45,-1.902 1.0695,-1.2 1.4475,-0.462 0.834,-1.056 0.1185,-1.572 -0.9795,-2.1375 0.1455,-1.1355 -1.4595,-1.1625 1.4595,-0.8445 -0.417,-0.7395 c 0,0 -1.6665,-0.8445 -1.9785,-0.9495 -0.3135,-0.1065 -1.146,-0.951 -1.146,-0.951 0,0 -0.5205,-1.056 -1.0425,-1.056 -0.5205,0 -2.187,0.8445 -2.499,1.056 -0.3135,0.2115 -1.3545,1.584 -1.3545,1.584 l -1.458,1.6905 -1.3545,1.4775 0.417,1.584 1.3545,1.479 -0.834,1.161"
       id="path3583"
       style="fill:#62b77e;fill-opacity:1;fill-rule:nonzero;stroke:none" /><path
       d="m 455.54475,409.82447 0.1815,3.6735"
       id="path3585"
       style="fill:none;stroke:#000000;stroke-width:1.5;stroke-linecap:butt;stroke-linejoin:miter;stroke-miterlimit:4;stroke-opacity:1;stroke-dasharray:none" /><path
       d="m 458.77875,421.14047 1.7925,-1.1475 0.144,-1.2675 -1.458,-1.1625 1.458,-0.8445 -0.4155,-0.7395 c 0,0 -1.0065,-0.5805 -1.3185,-0.6855 -0.3135,-0.1065 -1.938,-1.215 -1.938,-1.215 l -0.9105,-1.188 c 0,0 -1.659,0.5805 -1.971,0.792 -0.3135,0.2115 -1.8825,1.98 -1.8825,1.98 l -1.458,1.6905 -1.3545,1.4775 0.417,1.584 1.3545,1.479 1.953,-0.4485 1.905,1.2255 2.187,0.09 1.4955,-1.62"
       id="path3587"
       style="fill:#62b77e;fill-opacity:1;fill-rule:nonzero;stroke:none" /><path
       d="m 347.00325,428.55497 c 0,0 0.9375,0.7395 0.9375,1.056 0,0.3165 -0.3135,1.3725 -0.6255,1.6905 -0.312,0.3165 0.639,1.1475 0.639,1.1475 l 1.548,0.648 1.7025,0.0255 0.9465,1.1625 2.0775,-0.5955 0.4515,-1.9005 1.0695,-1.2015 1.4475,-0.462 0.8325,-1.056 0.1185,-1.5705 -0.9795,-2.139 0.1455,-1.134 -1.458,-1.1625 1.458,-0.8445 -0.417,-0.7395 c 0,0 -1.6665,-0.8445 -1.9785,-0.951 -0.312,-0.105 -1.146,-0.9495 -1.146,-0.9495 0,0 -0.5205,-1.056 -1.041,-1.056 -0.5205,0 -2.187,0.8445 -2.5005,1.056 -0.312,0.2115 -1.353,1.584 -1.353,1.584 l -1.4595,1.689 -1.353,1.479 0.4155,1.584 1.3545,1.479 -0.8325,1.161"
       id="path3589"
       style="fill:#62b77e;fill-opacity:1;fill-rule:nonzero;stroke:none" /><path
       d="m 352.14075,415.32497 0.1815,3.6735"
       id="path3591"
       style="fill:none;stroke:#000000;stroke-width:1.5;stroke-linecap:butt;stroke-linejoin:miter;stroke-miterlimit:4;stroke-opacity:1;stroke-dasharray:none" /><path
       d="m 355.37325,426.64097 1.7925,-1.149 0.1455,-1.266 -1.458,-1.1625 1.458,-0.8445 -0.417,-0.7395 c 0,0 -1.0065,-0.5805 -1.3185,-0.687 -0.312,-0.105 -1.938,-1.2135 -1.938,-1.2135 l -0.909,-1.188 c 0,0 -1.6605,0.5805 -1.9725,0.792 -0.312,0.2115 -1.8825,1.98 -1.8825,1.98 l -1.458,1.689 -1.3545,1.479 0.417,1.584 1.3545,1.479 1.953,-0.4485 1.905,1.224 2.1885,0.0915 1.494,-1.62"
       id="path3593"
       style="fill:#62b77e;fill-opacity:1;fill-rule:nonzero;stroke:none" /><path
       d="m 383.30475,478.05797 c 0,0 0.936,0.738 0.936,1.056 0,0.3165 -0.312,1.3725 -0.624,1.689 -0.312,0.318 0.639,1.149 0.639,1.149 l 1.548,0.6465 1.7025,0.027 0.9465,1.161 2.0775,-0.594 0.4515,-1.9005 1.0695,-1.2015 1.4475,-0.462 0.8325,-1.056 0.1185,-1.5705 -0.9795,-2.139 0.1455,-1.1355 -1.458,-1.161 1.458,-0.846 -0.4155,-0.738 c 0,0 -1.668,-0.846 -1.98,-0.951 -0.312,-0.105 -1.146,-0.951 -1.146,-0.951 0,0 -0.5205,-1.056 -1.041,-1.056 -0.5205,0 -2.187,0.846 -2.5005,1.056 -0.312,0.2115 -1.353,1.584 -1.353,1.584 l -1.4595,1.6905 -1.353,1.479 0.4155,1.584 1.3545,1.4775 -0.8325,1.1625"
       id="path3595"
       style="fill:#62b77e;fill-opacity:1;fill-rule:nonzero;stroke:none" /><path
       d="m 388.44225,464.82647 0.1815,3.6735"
       id="path3597"
       style="fill:none;stroke:#000000;stroke-width:1.5;stroke-linecap:butt;stroke-linejoin:miter;stroke-miterlimit:4;stroke-opacity:1;stroke-dasharray:none" /><path
       d="m 391.67475,476.14397 1.7925,-1.149 0.1455,-1.2675 -1.458,-1.161 1.458,-0.846 -0.417,-0.738 c 0,0 -1.0065,-0.582 -1.3185,-0.687 -0.312,-0.105 -1.938,-1.215 -1.938,-1.215 l -0.909,-1.188 c 0,0 -1.6605,0.582 -1.9725,0.792 -0.312,0.2115 -1.881,1.98 -1.881,1.98 l -1.4595,1.6905 -1.353,1.479 0.4155,1.584 1.3545,1.4775 1.953,-0.4485 1.905,1.2255 2.1885,0.09 1.494,-1.6185"
       id="path3599"
       style="fill:#62b77e;fill-opacity:1;fill-rule:nonzero;stroke:none" /><path
       d="m 217.44075,460.06097 c 0,0 -1.278,1.008 -1.278,1.44 0,0.4335 0.426,1.8735 0.852,2.3055 0.426,0.432 -0.8715,1.566 -0.8715,1.566 l -2.112,0.882 -2.3205,0.036 -1.2915,1.584 -2.8335,-0.81 -0.6135,-2.592 -1.458,-1.638 -1.9755,-0.6315 -1.1355,-1.44 -0.162,-2.142 1.3365,-2.916 -0.1995,-1.548 1.989,-1.584 -1.989,-1.152 0.5685,-1.008 c 0,0 2.2725,-1.152 2.6985,-1.296 0.4275,-0.144 1.563,-1.296 1.563,-1.296 0,0 0.7095,-1.44 1.4205,-1.44 0.7095,0 2.982,1.152 3.408,1.44 0.4275,0.288 1.8465,2.16 1.8465,2.16 l 1.989,2.304 1.8465,2.016 -0.5685,2.16 -1.8465,2.016 1.137,1.584"
       id="path3601"
       style="fill:#62b77e;fill-opacity:1;fill-rule:nonzero;stroke:none" /><path
       d="m 210.43425,442.02047 -0.2475,5.0085"
       id="path3603"
       style="fill:none;stroke:#000000;stroke-width:1.5;stroke-linecap:butt;stroke-linejoin:miter;stroke-miterlimit:4;stroke-opacity:1;stroke-dasharray:none" /><path
       d="m 206.02575,457.45097 -2.4435,-1.566 -0.1995,-1.728 1.989,-1.584 -1.989,-1.152 0.5685,-1.008 c 0,0 1.3725,-0.792 1.7985,-0.936 0.426,-0.144 2.643,-1.656 2.643,-1.656 l 1.2405,-1.62 c 0,0 2.262,0.792 2.688,1.08 0.426,0.288 2.5665,2.7 2.5665,2.7 l 1.989,2.304 1.8465,2.016 -0.5685,2.16 -1.8465,2.016 -2.664,-0.612 -2.5965,1.671 -2.9835,0.1245 -2.0385,-2.2095"
       id="path3605"
       style="fill:#62b77e;fill-opacity:1;fill-rule:nonzero;stroke:none" /><path
       d="m 354.29175,462.35147 c 0,0 -1.1715,0.924 -1.1715,1.32 0,0.396 0.39,1.716 0.7815,2.112 0.39,0.396 -0.7995,1.4355 -0.7995,1.4355 l -1.935,0.8085 -2.127,0.033 -1.185,1.452 -2.5965,-0.7425 -0.5625,-2.376 -1.338,-1.5015 -1.809,-0.5775 -1.0425,-1.32 -0.147,-1.9635 1.224,-2.673 -0.1815,-1.419 1.8225,-1.452 -1.8225,-1.0575 0.5205,-0.924 c 0,0 2.0835,-1.056 2.4735,-1.188 0.3915,-0.132 1.4325,-1.188 1.4325,-1.188 0,0 0.651,-1.32 1.302,-1.32 0.651,0 2.7345,1.056 3.1245,1.32 0.3915,0.264 1.6935,1.98 1.6935,1.98 l 1.8225,2.1135 1.692,1.848 -0.5205,1.98 -1.692,1.848 1.041,1.452"
       id="path3607"
       style="fill:#62b77e;fill-opacity:1;fill-rule:nonzero;stroke:none" /><path
       d="m 347.86875,445.81247 -0.2265,4.5915"
       id="path3609"
       style="fill:none;stroke:#000000;stroke-width:1.5;stroke-linecap:butt;stroke-linejoin:miter;stroke-miterlimit:4;stroke-opacity:1;stroke-dasharray:none" /><path
       d="m 343.82775,459.95897 -2.2395,-1.4355 -0.183,-1.584 1.824,-1.452 -1.824,-1.0575 0.522,-0.924 c 0,0 1.257,-0.726 1.6485,-0.858 0.39,-0.132 2.4225,-1.518 2.4225,-1.518 l 1.137,-1.485 c 0,0 2.0745,0.726 2.4645,0.99 0.39,0.264 2.352,2.475 2.352,2.475 l 1.8225,2.1135 1.6935,1.848 -0.5205,1.98 -1.6935,1.848 -2.442,-0.561 -2.3805,1.5315 -2.7345,0.1125 -1.869,-2.0235"
       id="path3611"
       style="fill:#62b77e;fill-opacity:1;fill-rule:nonzero;stroke:none" /><path
       d="m 366.09975,417.95297 -0.2325,6.6105 0.2415,8.6715"
       id="path3613"
       style="fill:none;stroke:#000000;stroke-width:1.5;stroke-linecap:butt;stroke-linejoin:miter;stroke-miterlimit:4;stroke-opacity:1;stroke-dasharray:none" /><path
       d="m 367.31775,438.45947 -0.522,6.8055"
       id="path3615"
       style="fill:none;stroke:#000000;stroke-width:1.04999995;stroke-linecap:butt;stroke-linejoin:miter;stroke-miterlimit:4;stroke-opacity:1;stroke-dasharray:none" /><path
       d="m 365.78775,426.12047 -4.545,4.956"
       id="path3617"
       style="fill:none;stroke:#000000;stroke-width:0.90000004;stroke-linecap:butt;stroke-linejoin:miter;stroke-miterlimit:4;stroke-opacity:1;stroke-dasharray:none" /><path
       d="m 358.95525,446.92847 -5.28,-0.33 -3.96,-3.3015 1.32,-5.61 c 0,0 2.31,-0.66 2.97,-2.64 0.66,-1.98 4.95,-5.28 5.94,-4.62 0.99,0.66 4.62,4.29 4.62,4.29 0,0 2.64,3.63 0,4.95 -2.64,1.32 -5.61,7.2615 -5.61,7.2615"
       id="path3619"
       style="fill:#62b77e;fill-opacity:1;fill-rule:nonzero;stroke:none" /><path
       d="m 375.78675,448.57847 c 1.98,1.32 1.32,5.28 1.32,5.28 l -4.6215,3.96 c 0,0 -0.99,3.3 -2.31,3.63 -1.32,0.33 -5.61,-0.33 -5.61,-0.33 l -4.29,-0.33 -1.32,-4.29 -3.63,-0.33 c 0,0 -1.32,-4.95 -0.33,-5.28 0.99,-0.33 3.96,-2.64 3.96,-2.64 0,0 2.97,-3.96 4.62,-3.63 1.7145,0.342 5.2935,1.0755 7.59,1.65 l 4.6215,2.31"
       id="path3621"
       style="fill:#62b77e;fill-opacity:1;fill-rule:nonzero;stroke:none" /><path
       d="m 377.10675,445.60847 -2.97,-0.99 -1.9815,-2.9715 -4.29,-0.66 -2.31,-5.61 1.32,-3.3 1.98,-1.32 3.96,3.63 c 0,0 -1.65,2.97 0.9915,3.3 2.64,0.33 2.64,2.97 3.96,3.63 l -0.66,4.2915"
       id="path3623"
       style="fill:#62b77e;fill-opacity:1;fill-rule:nonzero;stroke:none" /><path
       d="m 198.52425,481.55297 c 0.426,0 3.8775,0.288 3.8775,0.288 0,0 -0.4695,3.024 -0.0435,3.744 0.4275,0.72 1.137,2.448 1.137,2.448 0,0 -0.852,2.592 -1.137,3.024 -0.2835,0.432 -1.704,1.584 -1.704,2.016 0,0.432 0,3.312 0,3.312 l -1.4205,1.872 -1.704,2.16 -1.8465,1.152 -2.415,0.72 -2.2725,-1.728 -0.852,-2.304 -3.8355,-0.432 -1.9875,-0.864 -4.476,-2.133 -0.639,-3.159 4.1205,-1.476 c 0,0 -1.8465,-0.432 -2.2725,-0.432 -0.426,0 -2.13,-1.728 -2.13,-1.728 0,0 2.13,-2.88 1.9875,-3.312 -0.141,-0.432 -1.1355,-2.448 -1.1355,-2.448 l 0.9945,-3.456 3.834,0 3.8355,-1.44 3.5505,0.1425 1.221,4.8255 -0.7215,2.7 -2.16,0.54 -0.36,2.7 2.52,1.8 3.4215,-2.34 2.613,-6.192"
       id="path3625"
       style="fill:#62b77e;fill-opacity:1;fill-rule:nonzero;stroke:none" /><path
       d="m 195.38775,454.76747 -0.072,-10.9815"
       id="path3627"
       style="fill:none;stroke:#000000;stroke-width:1.5;stroke-linecap:butt;stroke-linejoin:miter;stroke-miterlimit:4;stroke-opacity:1;stroke-dasharray:none" /><path
       d="m 191.85975,475.15847 -3.1065,-1.137 -0.852,1.4685 -2.2155,0 -2.472,-0.519 c 0,0 -2.2155,-0.5175 -2.727,-0.5175 -0.5115,0 -2.556,-2.0745 -2.556,-2.0745 0,0 2.556,-3.456 2.3865,-3.975 -0.171,-0.5175 -1.365,-2.937 -1.365,-2.937 l 1.194,-4.1475 4.602,0 4.602,-1.728 4.2615,0.1725 4.0725,4.062 2.1405,-2.7225 4.6035,-0.144 3.3735,3.6 -0.327,3.096 1.4205,3.024 -1.2075,3.096 -1.6335,1.8015 -0.0705,3.528 -1.989,2.592 -1.1355,-1.44 -2.1105,-2.52 -4.149,0.288 0.507,-3.4575 0.639,-1.656 -3.552,0.504 -2.334,1.743"
       id="path3629"
       style="fill:#62b77e;fill-opacity:1;fill-rule:nonzero;stroke:none" /><path
       d="m 195.60075,455.05547 -0.1815,-0.072 -0.225,6.048"
       id="path3631"
       style="fill:none;stroke:#000000;stroke-width:1.04999995;stroke-linecap:butt;stroke-linejoin:miter;stroke-miterlimit:4;stroke-opacity:1;stroke-dasharray:none" /><path
       d="m 194.96925,483.78497 -4.8165,4.698"
       id="path3633"
       style="fill:none;stroke:#000000;stroke-width:0.90000004;stroke-linecap:butt;stroke-linejoin:miter;stroke-miterlimit:4;stroke-opacity:1;stroke-dasharray:none" /><path
       d="m 194.42925,473.25347 0.9375,14.7075 m -0.3075,-32.9775 -5.5365,4.608 m 9.5865,1.242 -3.735,-3.942 m -4.365,17.892 -2.3865,2.808 m 6.5025,0.5685 4.59,3.348"
       id="path3635"
       style="fill:none;stroke:#000000;stroke-width:1.04999995;stroke-linecap:butt;stroke-linejoin:miter;stroke-miterlimit:4;stroke-opacity:1;stroke-dasharray:none" /><path
       d="m 427.63875,443.16647 c -0.4305,0 -3.9105,0.291 -3.9105,0.291 0,0 0.4725,3.048 0.0435,3.774 -0.4305,0.726 -1.146,2.469 -1.146,2.469 0,0 0.8595,2.6145 1.146,3.0495 0.2865,0.435 1.7175,1.5975 1.7175,2.0325 0,0.4365 0,3.3405 0,3.3405 l 1.4325,1.887 1.719,2.178 1.8615,1.1625 2.4345,0.726 2.292,-1.743 0.8595,-2.3235 3.867,-0.435 2.0055,-0.8715 4.5135,-2.151 0.6435,-3.186 -4.155,-1.488 c 0,0 1.8615,-0.435 2.292,-0.435 0.429,0 2.148,-1.743 2.148,-1.743 0,0 -2.148,-2.904 -2.0055,-3.339 0.144,-0.4365 1.146,-2.469 1.146,-2.469 l -1.002,-3.4845 -3.867,0 -3.867,-1.452 -3.5805,0.144 -1.23,4.8645 0.726,2.7225 2.178,0.5445 0.363,2.724 -2.541,1.815 -3.45,-2.3595 -2.634,-6.2445"
       id="path3637"
       style="fill:#62b77e;fill-opacity:1;fill-rule:nonzero;stroke:none" /><path
       d="m 430.80075,416.15747 0.072,-11.0715"
       id="path3639"
       style="fill:none;stroke:#000000;stroke-width:1.5;stroke-linecap:butt;stroke-linejoin:miter;stroke-miterlimit:4;stroke-opacity:1;stroke-dasharray:none" /><path
       d="m 434.35875,436.71947 3.132,-1.1475 0.8595,1.4805 2.2335,0 2.4915,-0.522 c 0,0 2.235,-0.5235 2.751,-0.5235 0.5145,0 2.577,-2.091 2.577,-2.091 0,0 -2.577,-3.4845 -2.406,-4.008 0.1725,-0.522 1.3755,-2.961 1.3755,-2.961 l -1.203,-4.182 -4.641,0 -4.6395,-1.743 -4.2975,0.174 -4.107,4.095 -2.1585,-2.7435 -4.641,-0.1455 -3.402,3.63 0.3285,3.1215 -1.431,3.0495 1.2165,3.1215 1.647,1.8165 0.072,3.5565 2.0055,2.6145 1.146,-1.452 2.1285,-2.541 4.182,0.2895 -0.51,-3.4845 -0.645,-1.6695 3.582,0.507 2.3535,1.758"
       id="path3641"
       style="fill:#62b77e;fill-opacity:1;fill-rule:nonzero;stroke:none" /><path
       d="m 430.58625,416.44847 0.183,-0.0735 -2.0415,7.914"
       id="path3643"
       style="fill:none;stroke:#000000;stroke-width:1.20000005;stroke-linecap:butt;stroke-linejoin:miter;stroke-miterlimit:4;stroke-opacity:1;stroke-dasharray:none" /><path
       d="m 431.22375,445.41647 4.8555,4.7385"
       id="path3645"
       style="fill:none;stroke:#000000;stroke-width:0.90000004;stroke-linecap:butt;stroke-linejoin:miter;stroke-miterlimit:4;stroke-opacity:1;stroke-dasharray:none" /><path
       d="m 431.76675,434.79947 -0.945,14.829"
       id="path3647"
       style="fill:none;stroke:#000000;stroke-width:1.04999995;stroke-linecap:butt;stroke-linejoin:miter;stroke-miterlimit:4;stroke-opacity:1;stroke-dasharray:none" /><path
       d="m 431.13225,416.37497 5.5815,4.647"
       id="path3649"
       style="fill:none;stroke:#000000;stroke-width:1.20000005;stroke-linecap:butt;stroke-linejoin:miter;stroke-miterlimit:4;stroke-opacity:1;stroke-dasharray:none" /><path
       d="m 435.21675,436.34147 2.4045,2.832 m -6.555,0.5715 -4.629,3.3765"
       id="path3651"
       style="fill:none;stroke:#000000;stroke-width:1.04999995;stroke-linecap:butt;stroke-linejoin:miter;stroke-miterlimit:4;stroke-opacity:1;stroke-dasharray:none" /><path
       d="m 458.68125,457.65947 -2.7675,0.5445 c 0,0 1.3365,4.4715 1.3365,5.0655 0,0.594 -3.3555,1.3365 -3.3555,1.3365 l -2.505,2.283 -4.5795,-0.8265 -0.912,-2.331 -3.1125,1.3755 -0.1965,-2.1795 -4.428,-1.485 -1.6215,-2.739 1.758,-1.881 -2.553,-2.0295 1.2885,-3.135 -3.4095,-0.222 0.765,-3.936 1.3035,-2.37 2.0295,-1.4355 0.1755,-3.1515 c 0,0 2.8965,-4.593 3.678,-4.593 -1.4445,0 3.2595,3.4035 3.2595,3.4035 l 4.26,-1.4955 c 0,0 1.758,1.386 2.3445,1.584 0.585,0.198 0.8535,3.1905 1.4385,3.1905 0.5865,0 2.076,-3.411 3.0525,-3.015 0.9765,0.396 2.916,-0.099 2.916,-0.099 l 3.603,2.0685 -0.4065,2.8605 c 0,0 1.6065,4.0695 1.4115,5.2575 -0.195,1.188 -1.758,3.96 -1.758,3.96 l -0.195,2.2905 -2.82,1.704"
       id="path3653"
       style="fill:#62b77e;fill-opacity:1;fill-rule:nonzero;stroke:none" /><path
       d="m 448.69725,426.69947 0.3015,11.391"
       id="path3655"
       style="fill:none;stroke:#000000;stroke-width:1.5;stroke-linecap:butt;stroke-linejoin:miter;stroke-miterlimit:4;stroke-opacity:1;stroke-dasharray:none" /><path
       d="m 448.97175,431.47247 3.6,4.7595 3.6105,3.6945 m -7.7235,-6.192 -5.406,3.72"
       id="path3657"
       style="fill:none;stroke:#000000;stroke-width:0.90000004;stroke-linecap:butt;stroke-linejoin:miter;stroke-miterlimit:4;stroke-opacity:1;stroke-dasharray:none" /><path
       d="m -15.41325,453.99947 c 0.3915,0 3.555,0.264 3.555,0.264 0,0 5.6205,0.573 6.0105,1.233 0.3915,0.66 1.0425,2.244 1.0425,2.244 0,0 -0.7815,2.376 -1.0425,2.772 -0.2595,0.396 -2.661,3.6525 -2.661,4.0485 0,0.396 -1.6515,3.585 -1.6515,3.585 l -2.4015,2.817 -3.762,0.33 -1.6935,1.056 -2.2125,0.66 -2.0835,-1.584 -0.7815,-2.112 -3.5145,-0.396 -1.824,-0.792 -7.4025,-4.7055 -0.5865,-2.8965 3.7785,-1.353 c 0,0 -1.6935,-0.396 -2.0835,-0.396 -0.3915,0 -1.953,-1.584 -1.953,-1.584 0,0 1.953,-2.64 1.8225,-3.036 -0.1305,-0.396 -1.041,-2.244 -1.041,-2.244 l 0.9105,-3.168 6.816,2.7495 3.516,-1.32 3.255,0.132 1.1175,4.422 -0.66,2.475 -1.98,0.495 -0.33,2.475 2.31,1.65 3.135,-2.145 2.3955,-5.676"
       id="path3659"
       style="fill:#62b77e;fill-opacity:1;fill-rule:nonzero;stroke:none" /><path
       d="m -18.28725,429.44597 -0.066,-6.765"
       id="path3661"
       style="fill:none;stroke:#000000;stroke-width:1.80000007;stroke-linecap:butt;stroke-linejoin:miter;stroke-miterlimit:4;stroke-opacity:1;stroke-dasharray:none" /><path
       d="m -21.52125,448.13897 -2.8485,-1.044 -0.78,1.347 -2.031,0 -5.5665,-3.225 c 0,0 -2.031,-0.4755 -2.499,-0.4755 -0.4695,0 -2.3445,-1.9005 -2.3445,-1.9005 0,0 2.3445,-3.168 2.1885,-3.6435 -0.1575,-0.4755 2.049,0.057 2.049,0.057 l 1.0935,-3.8025 4.2195,0 4.218,-1.584 3.906,0.159 3.7335,3.723 1.962,-2.4945 4.2195,-0.6825 3.093,3.3 3.0015,1.188 1.3005,2.772 -1.1055,2.838 -1.497,1.65 -0.066,3.234 -4.572,2.9265 -1.5915,0.33 -1.935,-2.31 -3.804,0.264 0.465,-3.168 0.5865,-1.518 -3.2565,0.462 -2.139,1.5975"
       id="path3663"
       style="fill:#62b77e;fill-opacity:1;fill-rule:nonzero;stroke:none" /><path
       d="m -18.09225,429.70997 -0.1665,-0.066 1.8555,7.1955 m -1.2375,-8.6385 5.775,6.1635 m -7.3005,12.0285 0.0345,13.893 m 0.543,-30.642 -5.0745,4.224"
       id="path3665"
       style="fill:none;stroke:#000000;stroke-width:1.20000005;stroke-linecap:butt;stroke-linejoin:miter;stroke-miterlimit:4;stroke-opacity:1;stroke-dasharray:none" /><path
       d="m -22.30125,447.79547 -2.187,2.574"
       id="path3667"
       style="fill:none;stroke:#000000;stroke-width:1.04999995;stroke-linecap:butt;stroke-linejoin:miter;stroke-miterlimit:4;stroke-opacity:1;stroke-dasharray:none" /><path
       d="m -18.94125,448.41497 4.62,5.544"
       id="path3669"
       style="fill:none;stroke:#000000;stroke-width:0.90000004;stroke-linecap:butt;stroke-linejoin:miter;stroke-miterlimit:4;stroke-opacity:1;stroke-dasharray:none" /><path
       d="m 383.31525,431.11397 c -0.312,0 -2.8425,0.2115 -2.8425,0.2115 0,0 -4.497,0.4575 -4.809,0.9855 -0.3135,0.528 -0.834,1.7955 -0.834,1.7955 0,0 0.6255,1.9005 0.834,2.2185 0.2085,0.3165 2.13,2.922 2.13,3.2385 0,0.3165 1.32,2.868 1.32,2.868 l 1.9215,2.253 3.009,0.264 1.3545,0.846 1.7715,0.528 1.6665,-1.2675 0.624,-1.6905 2.8125,-0.3165 1.458,-0.633 5.9235,-3.765 0.468,-2.316 -3.021,-1.083 c 0,0 1.353,-0.3165 1.6665,-0.3165 0.312,0 1.5615,-1.2675 1.5615,-1.2675 0,0 -1.5615,-2.112 -1.458,-2.4285 0.105,-0.318 0.834,-1.7955 0.834,-1.7955 l -0.729,-2.535 -5.4525,2.2005 -2.8125,-1.056 -2.604,0.105 -0.8955,3.5385 0.528,1.98 1.584,0.396 0.264,1.98 -1.848,1.32 -2.508,-1.716 -1.917,-4.542"
       id="path3671"
       style="fill:#62b77e;fill-opacity:1;fill-rule:nonzero;stroke:none" /><path
       d="m 385.61625,411.47147 0.0525,-5.412"
       id="path3673"
       style="fill:none;stroke:#000000;stroke-width:1.80000007;stroke-linecap:butt;stroke-linejoin:miter;stroke-miterlimit:4;stroke-opacity:1;stroke-dasharray:none" /><path
       d="m 388.20375,426.42497 2.277,-0.834 0.6255,1.077 1.6245,0 4.452,-2.58 c 0,0 1.626,-0.3795 2.001,-0.3795 0.375,0 1.875,-1.521 1.875,-1.521 0,0 -1.875,-2.535 -1.7505,-2.9145 0.1245,-0.381 -1.6395,0.045 -1.6395,0.045 l -0.876,-3.0405 -3.375,0 -3.3735,-1.2675 -3.126,0.126 -2.9865,2.979 -1.5705,-1.9965 -3.375,-0.546 -2.475,2.64 -2.4,0.951 -1.041,2.2185 0.885,2.2695 1.1985,1.32 0.051,2.5875 3.6585,2.3415 1.2735,0.264 1.548,-1.848 3.042,0.2115 -0.372,-2.535 -0.468,-1.215 2.6055,0.369 1.7115,1.278"
       id="path3675"
       style="fill:#62b77e;fill-opacity:1;fill-rule:nonzero;stroke:none" /><path
       d="m 385.46025,411.68297 0.132,-0.0525 -1.4835,5.7555 m 0.9885,-6.9105 -4.62,4.9305"
       id="path3677"
       style="fill:none;stroke:#000000;stroke-width:1.20000005;stroke-linecap:butt;stroke-linejoin:miter;stroke-miterlimit:4;stroke-opacity:1;stroke-dasharray:none" /><path
       d="m 386.31825,425.02847 -0.027,11.115"
       id="path3679"
       style="fill:none;stroke:#000000;stroke-width:1.04999995;stroke-linecap:butt;stroke-linejoin:miter;stroke-miterlimit:4;stroke-opacity:1;stroke-dasharray:none" /><path
       d="m 385.85625,411.63047 4.0605,3.3795"
       id="path3681"
       style="fill:none;stroke:#000000;stroke-width:1.20000005;stroke-linecap:butt;stroke-linejoin:miter;stroke-miterlimit:4;stroke-opacity:1;stroke-dasharray:none" /><path
       d="m 388.82775,426.15047 1.749,2.0595"
       id="path3683"
       style="fill:none;stroke:#000000;stroke-width:1.04999995;stroke-linecap:butt;stroke-linejoin:miter;stroke-miterlimit:4;stroke-opacity:1;stroke-dasharray:none" /><path
       d="m 386.13825,426.64697 -3.696,4.434"
       id="path3685"
       style="fill:none;stroke:#000000;stroke-width:0.90000004;stroke-linecap:butt;stroke-linejoin:miter;stroke-miterlimit:4;stroke-opacity:1;stroke-dasharray:none" /><g
       transform="matrix(1.5,0,0,1.5,-108.35775,-200.24953)"
       id="g3687"><g
         clip-path="url(#clipPath3691)"
         id="g3689"><path
           d="m 350.769,401.234 c 0.74,0.147 2.344,0.392 5.802,0.784 7.931,0.898 10.152,1.057 16,2 10.267,1.655 13.001,1.5 13.001,1.5"
           id="path3695"
           style="fill:#e7d9c8;fill-opacity:1;fill-rule:nonzero;stroke:none" /><path
           d="m 350.769,401.234 c 0.74,0.147 2.344,0.392 5.802,0.784 7.931,0.898 10.152,1.057 16,2 10.267,1.655 13.001,1.5 13.001,1.5"
           id="path3697"
           style="fill:none;stroke:#000000;stroke-width:0.5;stroke-linecap:butt;stroke-linejoin:miter;stroke-miterlimit:4;stroke-opacity:1;stroke-dasharray:none" /><path
           d="m 350.769,401.234 c 0.74,0.147 2.344,0.392 5.802,0.784 7.931,0.898 10.152,1.057 16,2 10.267,1.655 13.001,1.5 13.001,1.5 l 0,-109.005 -336.014,0 0,114.005 c 0,0 7.251,2.559 11.501,2.6 4.203,0.041 13.808,3.743 22.251,5.15 9,1.5 21.417,3.084 33.751,4.751 11.985,1.619 18.501,1.2 34.001,2.2 15.501,1 36.002,2.05 51.252,2.05 17.526,0 22.554,-1.724 29.918,-3.584 10.309,-2.603 10.917,-3.833 24.835,-6.167 19.508,-3.27 13,-4.5 35.501,-9 22.501,-4.5 24.814,-3.953 36.335,-5.834 6.054,-0.988 10.185,-1.152 11.917,-1.171 0.605,-0.006 1.292,-0.47 1.292,-0.47 l 0.792,-1.609 6.75,0 0.437,1.229 c 0,0 -0.062,0.424 0.678,0.571"
           id="path3699"
           style="fill:none;stroke:#000000;stroke-width:0.60000002;stroke-linecap:butt;stroke-linejoin:miter;stroke-miterlimit:4;stroke-opacity:1;stroke-dasharray:none" /><path
           d="m 349.237,399.184 c 0,0 5.667,0.534 13.667,0.534 5.523,0 15.02,1.268 22.668,1.133 m -335.747,6.334 c 4.333,0.666 3.9,1.166 8.9,1.833 6.03,0.804 6.667,1.333 11.501,1.667 4.173,0.288 3.514,0.745 6.538,0.548 1.532,-0.101 3.895,-0.884 4.795,-1.882 2.059,-2.281 2.001,-3 2.001,-3 l 3.166,0 c 0,0 0.462,1.449 1.334,2.834 1.074,1.705 2.167,2.5 4,3 4.181,1.14 18.501,2.666 25.168,3 6.666,0.333 26.001,1 34.001,1.667 8,0.666 23.334,1 33.335,1 10,0 25.334,-1 35.334,-2.334 10.001,-1.333 24.668,-3.333 38.669,-5.667 14,-2.333 21.001,-4 31.001,-5.667 10.487,-1.747 24.832,-3.367 34.001,-4 9.667,-0.666 19.335,-0.866 19.335,-0.866"
           id="path3701"
           style="fill:none;stroke:#000407;stroke-width:0.60000002;stroke-linecap:butt;stroke-linejoin:miter;stroke-miterlimit:4;stroke-opacity:1;stroke-dasharray:3, 1, 3, 1, 3, 1;stroke-dashoffset:0" /></g></g><path
       d=""
       id="path3739"
       style="fill:#00a1ee;fill-opacity:1;fill-rule:nonzero;stroke:#00a1ee;stroke-width:1;stroke-linecap:butt;stroke-linejoin:miter;stroke-miterlimit:4;stroke-opacity:1;stroke-dasharray:none" /><path
       d=""
       id="path3745"
       style="fill:#00a1ee;fill-opacity:1;fill-rule:nonzero;stroke:#00a1ee;stroke-width:1;stroke-linecap:butt;stroke-linejoin:miter;stroke-miterlimit:4;stroke-opacity:1;stroke-dasharray:none" /><path
       d=""
       id="path3751"
       style="fill:#00a1ee;fill-opacity:1;fill-rule:nonzero;stroke:#00a1ee;stroke-width:1;stroke-linecap:butt;stroke-linejoin:miter;stroke-miterlimit:4;stroke-opacity:1;stroke-dasharray:none" /><text
       x="202.7124"
       y="-549.43286"
       transform="scale(1,-1)"
       id="text3958"
       xml:space="preserve"
       style="font-size:10.39999962px;font-style:normal;font-weight:normal;text-align:center;line-height:125%;letter-spacing:0px;word-spacing:0px;text-anchor:middle;fill:#000000;fill-opacity:1;stroke:none;font-family:Sans"><tspan
         x="202.7124"
         y="-549.43286"
         id="tspan3960">RECHARGE AREA</tspan></text>
<text
       x="63.688622"
       y="-450.44803"
       transform="scale(1,-1)"
       id="text3958-6"
       xml:space="preserve"
       style="font-size:10.39999962px;font-style:normal;font-weight:normal;text-align:center;line-height:125%;letter-spacing:0px;word-spacing:0px;text-anchor:middle;fill:#000000;fill-opacity:1;stroke:none;font-family:Sans"><tspan
         x="63.688622"
         y="-450.44803"
         id="tspan3960-6">PUMPED WELL</tspan></text>
<text
       x="355.88763"
       y="-534.16357"
       transform="scale(1,-1)"
       id="text3958-1"
       xml:space="preserve"
       style="font-size:10.39999962px;font-style:normal;font-weight:normal;text-align:center;line-height:125%;letter-spacing:0px;word-spacing:0px;text-anchor:middle;fill:#000000;fill-opacity:1;stroke:none;font-family:Sans"><tspan
         x="355.88763"
         y="-534.16357"
         id="tspan3960-5">DISCHARGE AREA</tspan></text>
<text
       x="172.06494"
       y="-437.47693"
       transform="matrix(0.99887502,-0.04742045,-0.04742045,-0.99887502,0,0)"
       id="text4004"
       xml:space="preserve"
       style="font-size:11.19999981px;font-style:normal;font-weight:normal;text-align:center;line-height:125%;letter-spacing:0px;word-spacing:0px;text-anchor:middle;fill:#000000;fill-opacity:1;stroke:none;font-family:Sans"><tspan
         x="172.06494"
         y="-437.47693"
         id="tspan4006">Water table</tspan></text>
<text
       x="392.3299"
       y="-110.64661"
       transform="matrix(0.39339766,0.91936841,0.91936841,-0.39339766,0,0)"
       id="text4008"
       xml:space="preserve"
       style="font-size:11.19999981px;font-style:normal;font-weight:normal;text-align:center;line-height:125%;letter-spacing:0px;word-spacing:0px;text-anchor:middle;fill:#000000;fill-opacity:1;stroke:none;font-family:Sans"><tspan
         x="392.3299"
         y="-110.64661"
         id="tspan4010">Days</tspan></text>
<text
       x="391.58868"
       y="-124.28731"
       transform="matrix(0.48196166,0.87619231,0.87619231,-0.48196166,0,0)"
       id="text4008-2"
       xml:space="preserve"
       style="font-size:11.19999981px;font-style:normal;font-weight:normal;text-align:center;line-height:125%;letter-spacing:0px;word-spacing:0px;text-anchor:middle;fill:#000000;fill-opacity:1;stroke:none;font-family:Sans"><tspan
         x="391.58868"
         y="-124.28731"
         id="tspan4010-6">Years</tspan></text>
<text
       x="-28.220327"
       y="-510.24399"
       transform="matrix(0.72832763,-0.68522905,-0.68522905,-0.72832763,0,0)"
       id="text4008-1"
       xml:space="preserve"
       style="font-size:11.19999981px;font-style:normal;font-weight:normal;text-align:center;line-height:125%;letter-spacing:0px;word-spacing:0px;text-anchor:middle;fill:#000000;fill-opacity:1;stroke:none;font-family:Sans"><tspan
         x="-28.220327"
         y="-510.24399"
         id="tspan4010-9">Days</tspan></text>
<text
       x="-109.43691"
       y="-469.87241"
       transform="matrix(0.66720081,-0.74487789,-0.74487789,-0.66720081,0,0)"
       id="text4008-2-6"
       xml:space="preserve"
       style="font-size:11.19999981px;font-style:normal;font-weight:normal;text-align:center;line-height:125%;letter-spacing:0px;word-spacing:0px;text-anchor:middle;fill:#000000;fill-opacity:1;stroke:none;font-family:Sans"><tspan
         x="-109.43691"
         y="-469.87241"
         id="tspan4010-6-1">Years</tspan></text>
<text
       x="314.20059"
       y="-254.38344"
       transform="scale(1,-1)"
       id="text4060"
       xml:space="preserve"
       style="font-size:11.19999981px;font-style:normal;font-weight:normal;text-align:center;line-height:125%;letter-spacing:0px;word-spacing:0px;text-anchor:middle;fill:#000000;fill-opacity:1;stroke:none;font-family:Sans"><tspan
         x="314.20059"
         y="-254.38344"
         id="tspan4062">Millennia</tspan></text>
<text
       x="321.24246"
       y="-323.21051"
       transform="scale(1,-1)"
       id="text4060-8"
       xml:space="preserve"
       style="font-size:11.19999981px;font-style:normal;font-weight:normal;text-align:center;line-height:125%;letter-spacing:0px;word-spacing:0px;text-anchor:middle;fill:#000000;fill-opacity:1;stroke:none;font-family:Sans"><tspan
         x="321.24246"
         y="-323.21051"
         id="tspan4062-6">Centuries</tspan></text>
<text
       x="317.50558"
       y="-362.59705"
       transform="scale(1,-1)"
       id="text4060-8-9"
       xml:space="preserve"
       style="font-size:11.19999981px;font-style:normal;font-weight:normal;text-align:center;line-height:125%;letter-spacing:0px;word-spacing:0px;text-anchor:middle;fill:#000000;fill-opacity:1;stroke:none;font-family:Sans"><tspan
         x="317.50558"
         y="-362.59705"
         id="tspan4062-6-9">Confining bed</tspan></text>
<text
       x="162.53442"
       y="-401.71603"
       transform="scale(1,-1)"
       id="text4060-8-9-1"
       xml:space="preserve"
       style="font-size:11.19999981px;font-style:normal;font-variant:normal;font-weight:normal;font-stretch:normal;text-align:center;line-height:110.00000238%;letter-spacing:0px;word-spacing:0px;writing-mode:lr-tb;text-anchor:middle;fill:#000000;fill-opacity:1;stroke:none;font-family:Sans;-inkscape-font-specification:Sans"><tspan
         x="162.53442"
         y="-401.71603"
         id="tspan4062-6-9-2">Unconfined</tspan><tspan
         x="162.53442"
         y="-389.39603"
         id="tspan4127">aquifer</tspan></text>
<text
       x="161.89197"
       y="-331.79279"
       transform="scale(1,-1)"
       id="text4060-8-9-1-3"
       xml:space="preserve"
       style="font-size:11.19999981px;font-style:normal;font-variant:normal;font-weight:normal;font-stretch:normal;text-align:center;line-height:110.00000238%;letter-spacing:0px;word-spacing:0px;writing-mode:lr-tb;text-anchor:middle;fill:#000000;fill-opacity:1;stroke:none;font-family:Sans;-inkscape-font-specification:Sans"><tspan
         x="161.89197"
         y="-331.79279"
         id="tspan4062-6-9-2-0">Confined</tspan><tspan
         x="161.89197"
         y="-319.47278"
         id="tspan4127-0">aquifer</tspan></text>
<text
       x="162.0533"
       y="-263.23257"
       transform="scale(1,-1)"
       id="text4060-8-9-1-3-5"
       xml:space="preserve"
       style="font-size:11.19999981px;font-style:normal;font-variant:normal;font-weight:normal;font-stretch:normal;text-align:center;line-height:110.00000238%;letter-spacing:0px;word-spacing:0px;writing-mode:lr-tb;text-anchor:middle;fill:#000000;fill-opacity:1;stroke:none;font-family:Sans;-inkscape-font-specification:Sans"><tspan
         x="162.0533"
         y="-263.23257"
         id="tspan4062-6-9-2-0-1">Confined</tspan><tspan
         x="162.0533"
         y="-250.91257"
         id="tspan4127-0-6">aquifer</tspan></text>
<text
       x="35.036499"
       y="-293.58334"
       transform="scale(1,-1)"
       id="text4060-8-9-8"
       xml:space="preserve"
       style="font-size:11.19999981px;font-style:normal;font-weight:normal;text-align:center;line-height:125%;letter-spacing:0px;word-spacing:0px;text-anchor:middle;fill:#000000;fill-opacity:1;stroke:none;font-family:Sans"><tspan
         x="35.036499"
         y="-293.58334"
         id="tspan4062-6-9-1">Confining bed</tspan></text>
<text
       x="498.34729"
       y="355.98291"
       transform="matrix(0,1,1,0,0,0)"
       id="text4198"
       xml:space="preserve"
       style="font-size:11.19999981px;font-style:normal;font-weight:normal;text-align:center;line-height:125%;letter-spacing:0px;word-spacing:0px;text-anchor:middle;fill:#000000;fill-opacity:1;stroke:none;font-family:Sans"><tspan
         x="498.34729"
         y="355.98291"
         id="tspan4200">Stream</tspan></text>
</g></svg>