<?xml version="1.0" standalone="no"?>
<!DOCTYPE svg PUBLIC "-//W3C//DTD SVG 20010904//EN"
 "http://www.w3.org/TR/2001/REC-SVG-20010904/DTD/svg10.dtd">
<svg version="1.0" xmlns="http://www.w3.org/2000/svg"
 width="540.000000pt" height="360.000000pt" viewBox="0 0 540.000000 360.000000"
 preserveAspectRatio="xMidYMid meet">

<g transform="translate(0.000000,360.000000) scale(0.100000,-0.100000)"
fill="#000000" stroke="none">
<path d="M2670 3535 c0 -10 7 -15 18 -13 21 4 19 22 -2 26 -10 2 -16 -3 -16
-13z"/>
<path d="M2666 3359 c-9 -23 -21 -77 -27 -120 -10 -80 -80 -332 -106 -382 -8
-16 -12 -31 -9 -34 10 -11 63 130 111 295 4 12 11 19 17 16 12 -8 2 -163 -14
-214 -46 -146 -184 -434 -203 -423 -5 4 -7 3 -3 -2 5 -5 -7 -36 -26 -69 -57
-102 -168 -328 -163 -332 2 -2 21 21 42 51 46 67 76 78 40 15 -17 -30 -21 -65
-5 -40 14 22 12 4 -4 -33 -7 -18 -25 -44 -40 -59 -24 -23 -25 -26 -7 -21 12 3
21 1 21 -4 0 -12 80 1 142 23 36 12 44 12 64 -1 19 -12 23 -12 28 0 5 13 -10
20 -36 16 -4 0 -5 6 -2 14 8 20 44 19 44 0 0 -8 3 -14 8 -14 21 4 24 -3 6 -17
-13 -11 -14 -14 -4 -11 12 4 16 -3 15 -27 0 -17 -4 -34 -9 -38 -12 -8 15 -14
124 -29 83 -10 115 -19 72 -19 -11 0 -23 -4 -26 -9 -3 -5 44 -10 104 -13 60
-2 113 -8 117 -11 10 -11 -19 -57 -36 -58 -12 0 -12 -2 3 -8 17 -7 16 -8 -7
-24 -15 -9 -35 -17 -45 -17 -23 0 -89 -34 -118 -61 l-23 -21 -21 20 c-18 17
-21 27 -15 66 6 38 5 46 -8 46 -9 0 -25 -12 -36 -26 -11 -14 -25 -23 -31 -19
-7 4 -10 0 -8 -11 2 -13 -2 -18 -14 -16 -16 3 -23 -8 -19 -30 2 -16 -40 -7
-60 13 -11 11 -23 18 -26 15 -4 -3 4 -14 15 -25 12 -10 22 -23 22 -29 0 -8 8
-9 25 -2 19 7 25 6 25 -4 0 -8 13 -27 29 -43 44 -45 52 -98 11 -73 -12 7 -12
12 -2 22 16 16 16 34 0 20 -7 -5 -30 -9 -50 -8 -20 2 -43 -1 -50 -5 -9 -6 -9
-9 -1 -9 15 0 10 -29 -8 -41 -22 -14 -33 -10 -18 7 11 13 9 14 -16 8 -16 -4
-44 -16 -62 -26 -17 -11 -50 -21 -73 -23 l-41 -4 23 18 c12 11 29 16 37 13 14
-5 14 -4 1 10 -11 11 -17 12 -22 4 -5 -7 -8 -5 -8 6 0 9 6 19 13 22 6 3 3 4
-8 3 -13 -1 -19 3 -17 12 3 12 0 12 -12 1 -9 -7 -16 -8 -16 -3 0 6 -10 10 -22
9 -31 -2 -70 37 -61 61 5 14 2 13 -17 -5 -13 -12 -29 -22 -34 -22 -6 0 -5 4 3
9 10 7 7 9 -12 8 -14 -1 -23 -5 -21 -8 7 -12 -25 -31 -37 -23 -7 4 -9 3 -5 -4
3 -6 -3 -17 -14 -25 -12 -8 -32 -29 -45 -47 -20 -27 -24 -29 -28 -13 -3 12 -5
9 -6 -9 0 -16 -5 -28 -11 -28 -5 0 -10 -11 -10 -25 0 -18 -5 -25 -20 -25 -11
0 -20 5 -20 10 0 6 -4 10 -9 10 -4 0 -12 -28 -16 -62 -6 -55 -8 -60 -17 -38
-5 14 -8 57 -5 97 4 80 -7 90 -18 16 -4 -27 -11 -56 -16 -65 -6 -12 -6 -18 1
-18 6 0 10 -34 10 -87 0 -82 -2 -89 -27 -110 -14 -13 -22 -23 -17 -23 6 0 15
5 21 11 14 14 10 -39 -6 -68 -14 -27 -14 -46 -1 -38 5 3 10 -4 10 -17 0 -44 4
-68 11 -68 4 0 9 5 11 11 3 8 10 6 20 -5 21 -20 28 -20 28 1 0 29 13 5 16 -29
1 -18 0 -27 -3 -20 -8 21 -21 13 -15 -10 3 -13 1 -19 -5 -15 -6 4 -13 0 -17
-8 -6 -18 19 -21 30 -4 4 8 11 3 19 -12 16 -28 8 -52 -13 -44 -13 5 -13 3 1
-13 9 -10 14 -22 11 -25 -4 -4 1 -9 10 -13 9 -3 16 -12 16 -19 0 -7 6 -18 14
-24 11 -9 15 -8 20 5 10 25 24 5 29 -39 5 -46 13 -55 52 -60 24 -3 30 -9 30
-28 1 -17 6 -23 18 -21 10 2 17 -4 17 -14 0 -14 2 -15 17 -3 15 12 16 12 10
-3 -3 -10 -2 -20 2 -23 18 -11 21 29 4 47 -10 11 -17 23 -17 27 1 3 -14 25
-33 47 -20 25 -31 48 -27 57 3 8 -3 28 -13 44 -17 27 -16 27 16 -5 48 -47 120
-94 132 -86 6 3 34 -5 62 -20 29 -14 61 -27 73 -29 11 -1 31 -13 44 -25 28
-26 40 -28 40 -6 0 11 6 15 18 12 10 -3 23 1 30 9 7 7 18 13 25 13 9 0 9 -2 0
-8 -8 -5 9 -8 38 -8 39 0 56 -5 68 -20 9 -10 41 -28 71 -39 109 -38 273 -20
401 46 46 23 56 24 39 4 -18 -22 -6 -19 43 10 l42 26 -55 -52 c-54 -50 -45
-51 35 -1 38 24 39 24 20 2 -11 -12 -32 -29 -48 -36 -17 -9 -25 -19 -20 -26 5
-9 8 -9 11 0 2 7 9 12 15 12 6 0 0 -11 -13 -25 -13 -14 -19 -25 -14 -25 9 0
54 28 64 40 3 3 29 21 57 39 29 18 66 49 83 69 17 21 42 49 56 63 15 16 21 30
15 33 -5 4 -14 -1 -19 -10 -5 -9 -14 -14 -20 -10 -6 3 1 18 17 35 25 28 26 28
32 7 6 -20 7 -20 17 6 6 14 18 30 27 35 15 9 15 11 0 23 -14 11 -17 10 -22 -8
-3 -12 -9 -20 -13 -17 -9 6 31 85 43 85 4 0 3 -10 -4 -21 -9 -17 -8 -23 2 -30
17 -10 28 9 34 53 2 18 11 38 20 44 11 9 13 17 6 35 l-9 24 -6 -25 c-4 -14
-16 -31 -26 -38 -17 -10 -18 -9 -9 20 4 17 6 35 3 39 -3 5 0 9 6 9 6 0 8 5 5
10 -4 6 -1 26 5 46 20 60 3 49 -19 -13 -15 -40 -19 -47 -15 -23 3 19 14 87 25
150 10 63 19 152 19 197 0 84 -16 183 -29 183 -4 0 -13 11 -19 25 -14 31 -15
46 -2 25 8 -12 10 -9 10 12 0 20 -4 26 -15 22 -8 -4 -15 -15 -15 -25 0 -18 -1
-18 -22 1 -52 47 -57 53 -53 60 3 5 -8 22 -24 39 -16 17 -27 31 -25 31 3 0 0
9 -6 20 -9 17 -7 19 22 14 18 -3 40 -6 48 -6 9 0 21 -12 28 -26 15 -32 51 -77
57 -71 2 3 -9 33 -25 67 -17 34 -30 68 -30 75 0 7 -5 18 -12 25 -9 9 -14 7
-24 -6 -22 -30 -26 -6 -5 29 12 19 21 28 21 20 0 -8 3 -11 6 -8 11 11 -16 64
-32 64 -8 0 -13 -6 -10 -14 9 -22 -4 -14 -14 10 -9 19 -10 17 -7 -12 4 -32 3
-33 -10 -15 -26 34 -84 162 -90 199 -3 19 -9 38 -14 40 -15 10 -20 -15 -13
-80 5 -51 16 -82 50 -142 24 -42 44 -78 44 -80 0 -17 -60 67 -70 97 -7 22 -17
37 -22 34 -5 -3 -25 11 -44 30 -20 20 -50 44 -68 54 -17 9 -41 28 -54 41 -13
13 -26 20 -29 17 -4 -4 -1 -12 5 -18 7 -7 12 -21 12 -33 -1 -14 -7 -8 -20 20
-20 42 -27 71 -10 45 6 -9 10 -10 10 -3 0 6 -7 19 -16 28 -9 8 -13 22 -10 31
4 10 2 13 -6 8 -7 -5 -9 -2 -5 9 3 9 1 17 -5 19 -6 2 -11 18 -12 35 -1 27 -4
31 -26 29 -14 -2 -19 -1 -12 1 8 3 11 12 8 20 -4 10 -2 13 8 10 10 -4 16 2 18
21 4 29 -2 48 -39 130 -13 29 -20 59 -17 65 4 7 3 9 -1 4 -10 -9 -37 51 -29
64 3 5 -2 12 -10 15 -9 3 -14 10 -11 14 3 5 -4 28 -15 52 -60 132 -100 241
-100 277 0 34 -2 38 -20 34 -12 -3 -20 0 -20 6 0 7 4 10 10 6 5 -3 18 11 29
32 21 41 22 40 41 -42 16 -73 157 -353 241 -480 80 -122 119 -172 119 -155 0
20 -21 51 -31 45 -5 -4 -9 -2 -9 3 0 5 -49 90 -108 189 -106 175 -191 361
-222 486 -12 45 -30 64 -30 32 0 -8 -9 -15 -20 -15 -11 0 -20 5 -20 10 0 6 7
10 15 10 21 0 19 18 -2 23 -14 3 -12 6 11 16 23 9 27 16 22 34 -3 12 -6 28 -6
35 0 8 -9 11 -25 8 -35 -7 -31 8 8 28 17 8 27 16 21 16 -6 0 -9 10 -7 23 4 24
-16 68 -33 74 -6 2 -19 -15 -28 -38z m11 -31 c-3 -7 -5 -2 -5 12 0 14 2 19 5
13 2 -7 2 -19 0 -25z m33 -8 c0 -23 -4 -30 -20 -30 -23 0 -27 15 -5 24 8 3 15
12 15 21 0 8 2 15 5 15 3 0 5 -13 5 -30z m3 -97 c3 -5 -8 -8 -23 -8 -15 0 -26
3 -23 8 2 4 13 7 23 7 10 0 21 -3 23 -7z m-3 -157 c0 -2 -7 -7 -16 -10 -8 -3
-12 -2 -9 4 6 10 25 14 25 6z m-39 -403 c13 -15 11 -16 -14 -9 -23 5 -29 3
-37 -16 -6 -16 -9 -18 -9 -6 -1 17 24 48 38 48 5 0 15 -7 22 -17z m19 -59 c0
-17 -22 -14 -28 4 -2 7 3 12 12 12 9 0 16 -7 16 -16z m244 -200 c20 -20 21
-30 1 -14 -12 10 -15 10 -15 -4 0 -9 -5 -16 -11 -16 -6 0 -8 7 -5 16 5 14 4
15 -9 4 -8 -7 -15 -20 -16 -29 0 -11 -2 -12 -6 -3 -5 14 22 62 37 62 4 0 16
-7 24 -16z m-343 -195 c9 -13 20 -36 23 -51 5 -22 3 -28 -11 -28 -14 0 -15 -2
-4 -9 11 -7 9 -11 -8 -21 -12 -6 -30 -9 -39 -7 -12 3 -11 5 6 6 24 1 28 10 12
29 -6 6 -7 10 -4 7 11 -8 34 16 34 35 0 9 -9 25 -20 35 -24 22 -38 13 -58 -38
l-12 -32 5 34 c6 37 32 74 49 68 5 -2 17 -14 27 -28z m-4 -265 c-3 -3 -12 -4
-19 -1 -8 3 -5 6 6 6 11 1 17 -2 13 -5z m351 -220 c-8 -9 -26 -14 -39 -12
l-24 5 25 11 c14 6 32 11 40 11 12 1 12 -2 -2 -15z m257 -15 c-4 -6 2 -19 12
-29 12 -10 20 -30 19 -47 -1 -22 -5 -28 -23 -27 -13 0 -23 -3 -23 -8 0 -15 30
-21 45 -8 8 6 19 9 24 6 5 -4 12 -2 16 4 4 6 11 8 16 4 5 -3 7 -10 3 -15 -3
-5 0 -8 8 -7 9 2 12 -6 10 -24 -2 -16 1 -28 8 -28 7 0 9 -8 5 -20 -4 -13 -2
-20 7 -20 20 0 44 -32 40 -52 -5 -24 -19 -23 -34 2 -15 23 -28 26 -28 7 0 -8
-19 4 -42 25 l-42 39 -13 -23 c-7 -13 -12 -17 -13 -10 0 21 -61 10 -74 -13
-20 -36 -36 -46 -63 -43 -40 5 -41 40 0 57 32 12 32 13 9 23 -27 13 -24 32 6
36 25 4 29 17 7 26 -8 3 -15 14 -15 25 0 11 -4 23 -10 26 -5 3 -10 -1 -10 -9
0 -9 -7 -16 -15 -16 -20 0 -19 6 6 31 l22 22 32 -34 c17 -19 30 -40 27 -47 -3
-10 3 -10 27 3 18 9 29 20 26 25 -3 4 3 16 12 26 17 17 17 18 0 11 -11 -4 -24
-1 -34 8 -13 13 -11 19 18 50 34 35 46 44 34 24z m-230 -19 c4 -6 -5 -10 -19
-10 -14 0 -26 5 -26 10 0 6 9 10 19 10 11 0 23 -4 26 -10z m-385 -119 c0 -12
-20 -25 -27 -18 -7 7 6 27 18 27 5 0 9 -4 9 -9z m-284 -25 c8 -9 10 -17 5 -21
-6 -3 -15 4 -21 15 -12 23 -5 26 16 6z m949 -76 c18 -20 18 -21 -1 -34 -10 -8
-21 -12 -24 -9 -3 2 4 9 14 15 18 10 18 11 -5 29 -13 10 -19 19 -13 19 6 0 19
-9 29 -20z m-745 -6 c19 -3 53 -7 75 -10 22 -3 52 -11 67 -19 15 -7 41 -16 58
-20 17 -4 28 -11 24 -16 -3 -5 2 -9 10 -9 9 0 16 -5 16 -11 0 -6 -7 -8 -17 -4
-15 5 -16 4 -5 -7 11 -11 17 -9 33 12 12 15 19 18 16 8 -3 -9 0 -19 7 -21 10
-4 12 1 9 16 -4 20 -3 20 7 5 6 -11 23 -18 40 -18 16 0 32 -5 36 -12 5 -7 3
-8 -7 -3 -12 8 -12 6 0 -9 8 -9 17 -13 20 -7 3 5 23 9 43 8 20 0 34 -5 31 -10
-11 -18 42 19 64 45 13 15 30 25 37 22 8 -3 30 2 51 10 21 9 50 16 65 16 24 0
27 -3 22 -25 -4 -21 -1 -25 20 -25 13 0 29 -5 35 -11 7 -7 46 -11 91 -11 74 0
79 -2 74 -20 -2 -11 -10 -22 -17 -25 -7 -2 -16 -15 -19 -29 -7 -26 -77 -104
-93 -104 -15 0 -58 -41 -55 -52 1 -5 -3 -6 -9 -2 -6 3 -15 1 -19 -5 -5 -9 -47
-13 -132 -14 -88 -1 -124 -5 -121 -13 9 -23 49 -32 98 -23 27 5 64 6 83 3 30
-6 33 -9 27 -35 -4 -18 -3 -29 5 -29 8 0 8 -6 0 -21 -7 -11 -9 -26 -7 -33 3
-7 -51 -41 -143 -88 -81 -42 -145 -79 -142 -82 3 -3 -6 -6 -19 -7 -13 0 -37
-9 -54 -20 -44 -27 -75 -40 -86 -33 -5 3 -9 0 -9 -5 0 -6 -8 -11 -18 -11 -10
0 -27 -7 -38 -15 -26 -20 -51 -19 -76 4 -11 11 -26 17 -34 14 -19 -7 -18 11 2
28 8 7 24 30 35 51 14 28 26 38 44 38 14 0 29 8 34 19 10 17 8 18 -22 11 -50
-11 -113 2 -102 20 3 5 -8 17 -25 26 -16 10 -30 22 -30 26 0 4 -7 8 -15 8 -8
0 -15 5 -15 11 0 5 -4 7 -10 4 -5 -3 -10 1 -10 10 0 10 -5 15 -14 12 -9 -4
-12 2 -10 20 1 14 0 22 -3 20 -8 -8 -43 31 -43 48 0 8 -5 15 -12 15 -16 0 -59
50 -52 61 3 5 0 9 -5 9 -6 0 -11 7 -11 16 0 13 -7 15 -29 11 -46 -9 -67 1 -65
31 1 15 -7 35 -17 45 -32 30 -23 75 12 57 12 -7 20 -7 24 0 3 5 0 10 -8 10
-11 0 -13 7 -10 23 5 18 3 20 -8 10 -7 -7 -17 -13 -22 -13 -5 0 1 8 14 19 13
10 29 16 37 14 7 -3 12 -2 11 3 -5 29 4 35 15 9 10 -24 13 -26 19 -12 3 9 2
17 -3 17 -6 0 -10 5 -10 11 0 6 9 8 20 4 15 -5 20 -2 20 12 0 14 2 15 9 5 7
-11 13 -9 29 8 12 13 25 19 33 15 8 -6 10 -4 4 5 -6 10 -2 11 19 6 14 -3 26
-2 26 3 0 5 -8 12 -17 14 -20 5 63 -1 117 -9z m450 -88 c0 -3 -4 -8 -10 -11
-5 -3 -10 -1 -10 4 0 6 5 11 10 11 6 0 10 -2 10 -4z m-753 -214 c30 -4 50 -30
30 -38 -9 -3 -14 -11 -11 -18 3 -9 -9 -12 -39 -12 -34 0 -42 3 -33 12 6 6 15
9 20 6 5 -3 3 4 -6 16 -8 13 -13 34 -10 52 4 31 5 31 16 8 6 -13 21 -24 33
-26z m-325 -14 c-8 -8 -12 -9 -12 -1 0 6 -3 20 -6 30 -7 17 -6 17 12 1 14 -14
16 -20 6 -30z m28 -78 c6 0 10 -5 10 -11 0 -5 -4 -7 -10 -4 -5 3 -10 0 -10 -7
-1 -23 -17 14 -23 52 l-6 35 15 -32 c8 -18 19 -33 24 -33z m55 -140 c10 -22
22 -40 27 -40 4 0 8 -8 8 -17 1 -26 23 -50 40 -46 12 4 12 3 1 -5 -10 -8 -11
-14 -1 -33 7 -13 -3 -6 -21 16 -19 21 -33 46 -31 53 2 8 -1 11 -6 8 -6 -3 -16
7 -24 24 -7 16 -15 30 -18 30 -3 0 -7 14 -8 31 -3 39 9 31 33 -21z m1485 -19
c0 -5 -9 -19 -20 -32 l-20 -24 17 32 c19 34 23 39 23 24z m-1470 -116 c0 -3
-4 -5 -10 -5 -5 0 -10 7 -10 15 0 8 -4 15 -10 15 -5 0 -10 10 -10 23 0 19 2
18 20 -11 11 -18 20 -35 20 -37z m1410 21 c0 -2 -8 -10 -17 -17 -16 -13 -17
-12 -4 4 13 16 21 21 21 13z m-1315 -56 c3 -5 1 -10 -4 -10 -6 0 -11 5 -11 10
0 6 2 10 4 10 3 0 8 -4 11 -10z m1259 -87 c-27 -27 -57 -49 -67 -50 -9 -1 -15
2 -12 8 4 5 10 9 14 9 4 0 27 18 50 40 23 22 47 40 53 40 6 0 -11 -21 -38 -47z
m-24 34 c0 -2 -15 -16 -32 -33 l-33 -29 29 33 c28 30 36 37 36 29z m-750 -17
c0 -5 -2 -10 -4 -10 -3 0 -8 5 -11 10 -3 6 -1 10 4 10 6 0 11 -4 11 -10z"/>
<path d="M2841 1344 c0 -11 3 -14 6 -6 3 7 2 16 -1 19 -3 4 -6 -2 -5 -13z"/>
<path d="M2915 1330 c-3 -5 -1 -10 4 -10 6 0 11 5 11 10 0 6 -2 10 -4 10 -3 0
-8 -4 -11 -10z"/>
<path d="M2886 3313 c-12 -12 -6 -33 9 -33 8 0 15 6 15 14 0 17 -14 28 -24 19z"/>
<path d="M2965 3161 c-7 -12 12 -24 25 -16 11 7 4 25 -10 25 -5 0 -11 -4 -15
-9z"/>
<path d="M2502 2785 c-17 -37 -14 -45 4 -12 9 16 14 31 11 33 -2 2 -9 -7 -15
-21z"/>
<path d="M2446 2693 c-6 -14 -5 -15 5 -6 7 7 10 15 7 18 -3 3 -9 -2 -12 -12z"/>
<path d="M2398 2598 c-16 -13 -181 -262 -233 -351 -15 -26 -30 -45 -33 -42 -5
5 -52 -69 -55 -89 -1 -4 8 -10 20 -12 19 -3 27 5 47 44 13 26 34 56 46 67 12
11 40 56 62 100 23 44 65 119 94 168 81 132 84 140 52 115z m-254 -433 c-4 -8
-8 -15 -10 -15 -2 0 -4 7 -4 15 0 8 4 15 10 15 5 0 7 -7 4 -15z"/>
<path d="M3169 2568 c-9 -20 -5 -60 7 -65 7 -3 12 -9 9 -13 -9 -14 16 -23 28
-10 9 9 8 14 -6 24 -15 12 -16 14 -2 20 20 7 19 32 -1 40 -16 6 -33 8 -35 4z"/>
<path d="M2090 2455 c0 -8 9 -15 20 -15 11 0 20 7 20 15 0 8 -9 15 -20 15 -11
0 -20 -7 -20 -15z"/>
<path d="M3226 2403 c-3 -3 -6 -22 -5 -42 0 -36 0 -36 16 -13 8 12 22 22 30
22 8 0 11 4 8 10 -9 15 -41 30 -49 23z"/>
<path d="M3140 2360 c0 -5 -7 -7 -16 -3 -14 5 -16 2 -10 -23 19 -81 38 -134
53 -152 16 -19 20 -20 37 -7 18 14 18 15 2 15 -10 0 -16 5 -13 13 2 6 10 11
17 9 9 -2 10 4 5 20 -4 13 -7 31 -8 40 -1 9 -6 14 -11 11 -5 -4 -7 1 -3 10 3
9 2 19 -3 22 -4 3 -10 0 -12 -6 -2 -6 -12 0 -23 12 -19 21 -19 22 -1 16 14 -6
17 -4 12 9 -3 8 -6 18 -6 20 0 2 -4 4 -10 4 -5 0 -10 -4 -10 -10z"/>
<path d="M3245 2340 c-8 -13 4 -50 16 -50 13 0 39 26 39 38 0 19 -45 29 -55
12z"/>
<path d="M3293 2145 c7 -14 16 -25 20 -25 9 0 -9 36 -22 44 -5 4 -4 -5 2 -19z"/>
<path d="M2134 2076 c-3 -14 -10 -26 -15 -26 -5 0 -9 -8 -10 -17 0 -10 -6 -3
-13 16 l-12 34 -18 -46 c-10 -26 -15 -51 -12 -56 8 -12 30 -9 49 7 17 14 52
101 44 109 -4 3 -9 -6 -13 -21z"/>
<path d="M3310 2087 c0 -17 33 -87 41 -87 5 0 0 19 -12 43 -23 45 -29 54 -29
44z"/>
<path d="M1997 1913 c-4 -3 -7 -11 -7 -17 0 -6 5 -5 12 2 6 6 9 14 7 17 -3 3
-9 2 -12 -2z"/>
<path d="M1950 1836 c0 -7 -9 -25 -20 -39 -11 -14 -20 -38 -20 -54 0 -32 -16
-54 -35 -47 -6 3 -19 -13 -30 -35 -10 -22 -22 -38 -26 -35 -5 3 -9 -2 -9 -11
0 -11 5 -15 16 -11 8 3 12 2 9 -3 -11 -19 18 -24 32 -6 17 24 17 35 -1 35 -11
0 -12 7 -7 28 5 17 14 26 24 24 21 -3 51 42 44 67 -3 13 1 21 14 24 20 6 39
44 32 65 -7 16 -23 15 -23 -2z m6 -42 c-4 -9 -9 -15 -11 -12 -3 3 -3 13 1 22
4 9 9 15 11 12 3 -3 3 -13 -1 -22z"/>
<path d="M3473 1804 c-8 -4 -7 -17 4 -51 10 -28 14 -63 10 -91 -2 -26 -3 -53
0 -59 7 -20 21 -15 25 7 4 25 23 27 24 2 1 -29 15 -62 26 -62 7 0 6 -5 -2 -14
-6 -8 -19 -12 -28 -9 -15 6 -15 5 -3 -10 13 -16 14 -16 26 0 18 24 30 10 15
-17 -6 -12 -9 -28 -6 -35 3 -8 0 -16 -7 -18 -7 -2 -8 -8 -4 -13 9 -10 28 16
21 28 -8 13 6 49 17 43 18 -12 -6 79 -49 185 -5 14 -18 46 -27 73 -17 47 -20
50 -42 41z"/>
<path d="M2600 1790 c0 -5 5 -10 11 -10 5 0 7 5 4 10 -3 6 -8 10 -11 10 -2 0
-4 -4 -4 -10z"/>
<path d="M2326 1712 c-7 -11 30 -42 40 -34 4 4 4 -1 1 -10 -3 -10 -2 -20 3
-23 6 -4 10 -1 10 4 0 6 4 11 9 11 6 0 25 14 43 30 l33 31 -45 -5 c-25 -2 -54
-8 -64 -12 -14 -5 -17 -4 -12 4 4 7 3 12 -3 12 -5 0 -12 -4 -15 -8z"/>
<path d="M1816 1653 c-6 -14 -5 -15 5 -6 7 7 10 15 7 18 -3 3 -9 -2 -12 -12z"/>
<path d="M1786 1543 c-6 -14 -5 -15 5 -6 7 7 10 15 7 18 -3 3 -9 -2 -12 -12z"/>
<path d="M1821 1544 c0 -11 3 -14 6 -6 3 7 2 16 -1 19 -3 4 -6 -2 -5 -13z"/>
<path d="M1793 1490 c-3 -11 -9 -17 -14 -14 -5 3 -9 -2 -9 -11 0 -9 4 -13 10
-10 7 4 7 -2 1 -18 -9 -22 -7 -26 14 -29 22 -5 25 -1 31 39 3 24 4 47 0 50 -3
4 -6 -4 -6 -16 0 -13 -4 -19 -10 -16 -6 4 -8 15 -5 26 4 10 3 19 0 19 -4 0 -9
-9 -12 -20z"/>
<path d="M3602 1435 c0 -16 2 -22 5 -12 2 9 2 23 0 30 -3 6 -5 -1 -5 -18z"/>
<path d="M3549 1410 c-5 -50 -4 -78 2 -100 6 -21 7 -19 8 13 1 24 5 36 11 32
7 -4 8 3 4 22 -8 33 -23 54 -25 33z"/>
<path d="M3596 1381 c-4 -7 -5 -15 -2 -18 9 -9 19 4 14 18 -4 11 -6 11 -12 0z"/>
<path d="M1778 1330 c-11 -12 -13 -22 -7 -26 6 -3 13 3 16 15 3 12 9 21 15 21
5 0 5 -7 0 -17 -6 -11 -4 -37 4 -68 l12 -50 -1 69 c-2 74 -12 88 -39 56z"/>
<path d="M3605 1340 c-4 -6 -13 -9 -21 -6 -10 4 -14 -4 -16 -27 -1 -18 -2 -41
-3 -52 -1 -11 -3 -35 -4 -54 -1 -24 -5 -32 -15 -28 -11 5 -14 -7 -13 -59 1
-35 4 -64 7 -64 9 1 40 27 40 34 0 3 -7 6 -15 6 -8 0 -15 7 -15 15 0 8 5 15
10 15 6 0 10 -4 10 -10 0 -5 4 -10 8 -10 16 0 34 107 22 130 -8 15 -8 20 1 20
7 0 5 8 -6 20 -11 12 -13 20 -6 20 6 0 16 12 22 26 10 28 6 44 -6 24z"/>
<path d="M3521 1113 c-1 -6 -4 -20 -7 -30 -5 -17 -5 -17 6 0 6 10 9 23 6 30
-3 9 -5 9 -5 0z"/>
<path d="M1846 971 c-5 -7 -3 -18 3 -24 14 -14 20 -6 11 17 -5 15 -9 16 -14 7z"/>
<path d="M2193 566 c6 -12 17 -23 24 -23 20 0 15 13 -11 30 -23 15 -23 15 -13
-7z"/>
<path d="M2262 541 c2 -8 14 -21 27 -30 22 -14 23 -14 19 5 -2 10 -10 19 -18
19 -8 0 -19 5 -23 10 -5 6 -7 4 -5 -4z"/>
<path d="M2440 468 c25 -11 74 -22 110 -24 36 -3 73 -6 83 -8 9 -2 15 -1 12 4
-3 4 -38 11 -77 15 -40 4 -93 14 -118 21 -61 19 -64 16 -10 -8z"/>
</g>
</svg>
